<svg width="329" height="378" viewBox="0 0 329 378" fill="none" xmlns="http://www.w3.org/2000/svg">
<path fill-rule="evenodd" clip-rule="evenodd" d="M81.7401 121.6H293.24C312.58 121.6 328.41 137.43 328.41 156.77V342.19C328.41 361.54 312.58 377.36 293.24 377.36H81.7401C62.3901 377.36 46.5701 361.53 46.5701 342.19V156.77C46.5701 137.42 62.4001 121.6 81.7401 121.6Z" fill="#FFF899"/>
<path fill-rule="evenodd" clip-rule="evenodd" d="M121.18 235.59C126.09 228.63 132.22 222.78 137.87 218.68C143.52 214.58 148.68 212.24 154.26 210.79C159.84 209.35 165.83 208.8 169.24 208.53C172.65 208.26 173.49 208.25 173.91 207C174.33 205.75 174.33 203.25 174.35 200.17C174.36 197.09 174.39 193.42 173.83 191.23C173.27 189.04 172.14 188.32 168.77 186.45C165.4 184.58 159.81 181.56 155.25 178.41C150.69 175.26 147.17 171.98 144.38 165.56C141.59 159.14 139.54 149.57 138.37 143.93C137.2 138.29 136.92 136.59 135.84 135.93C134.76 135.27 132.89 135.67 130.92 136.12C128.95 136.57 126.89 137.07 123.83 136.61C120.78 136.15 116.74 134.72 114.11 132.53C111.48 130.34 110.28 127.39 109.82 124.11C109.36 120.83 109.65 117.21 110.68 114.49C111.71 111.77 113.49 109.94 115.65 108.93C117.81 107.92 120.35 107.73 121.26 106.54C122.18 105.34 121.48 103.15 120.64 100.35C119.8 97.55 118.82 94.14 117.34 89.4C115.85 84.66 113.86 78.59 113.37 72.17C112.89 65.74 113.91 58.96 115.66 53.69C117.41 48.42 119.9 44.67 123 40.85C126.09 37.03 129.8 33.15 133.48 30.43C137.16 27.71 140.82 26.14 143.56 24.21C146.31 22.27 148.13 19.96 151.43 16.2C154.73 12.44 159.5 7.22 166.01 4.28C172.53 1.35 180.8 0.700004 188.8 2.51C196.8 4.33 204.54 8.61 211.33 13.03C218.12 17.45 223.97 22.01 230.43 25.85C236.88 29.69 243.95 32.82 248.5 34.64C253.05 36.45 255.08 36.94 256.42 37.93C257.76 38.91 258.4 40.39 257.97 42.6C257.54 44.81 256.02 47.76 254.17 51.71C252.31 55.66 250.11 60.61 248.76 64.16C247.41 67.71 246.93 69.87 246.61 73.53C246.28 77.2 246.12 82.38 246.33 87.9C246.55 93.42 247.15 99.27 247.9 101.6C248.64 103.92 249.53 102.72 251.69 102.82C253.86 102.92 257.31 104.31 260.01 106.86C262.7 109.42 264.64 113.13 264.84 116.61C265.04 120.08 263.5 123.31 261.8 125.86C260.1 128.41 258.24 130.27 255.72 131.59C253.19 132.91 250 133.69 247.63 134.12C245.25 134.55 243.7 134.64 243.14 135.42C242.58 136.2 243.02 137.68 241.72 142.58C240.42 147.49 237.39 155.82 235.39 161.77C233.39 167.72 232.43 171.27 228.69 174.91C224.95 178.54 218.43 182.25 213.84 184.57C209.25 186.89 206.58 187.81 204.89 188.92C203.19 190.04 202.47 191.34 202.16 194.53C201.84 197.72 201.92 202.78 202.74 205.1C203.56 207.43 205.11 207.02 207.65 207.14C210.19 207.26 213.72 207.91 217.71 209.7C221.7 211.49 226.15 214.43 232.28 218.93C238.41 223.44 246.23 229.52 255.06 238.75C263.89 247.99 273.72 260.38 283.2 273.21C292.68 286.03 301.8 299.28 307.33 308.84C312.86 318.4 314.79 324.26 316.61 329.74C318.42 335.22 320.11 340.32 320.17 347.24C320.22 354.16 318.64 362.89 315.3 374.46C315.03 375.41 314.74 376.37 314.45 377.35H278.25C279.23 371.95 280.16 366.87 280.9 363.02C282.55 354.37 283.22 351.85 281.37 348.02C279.52 344.19 275.16 339.06 270.4 333.12C265.64 327.18 260.48 320.43 257.6 316.66C254.72 312.89 254.12 312.11 254.34 319.99C254.56 327.87 255.59 344.41 256.67 361.67L257.65 377.35H121.85C122.57 365.04 123.15 354.54 123.23 348.69C123.32 341.6 122.68 341.37 120.98 342.47C119.28 343.57 116.52 345.99 112.83 349.07C109.14 352.15 104.51 355.89 99.8301 358.18C95.1501 360.47 90.41 361.31 86.0201 359.38C81.6301 357.46 77.5901 352.77 74.1901 347.59C70.7901 342.4 68.0301 336.72 64.9901 326.23C61.9501 315.74 58.6301 300.44 56.1601 286.55C53.6901 272.67 52.0701 260.2 50.6201 252.35C49.1801 244.51 47.9101 241.3 48.3701 239.57C48.8301 237.84 51.0101 237.61 53.0901 237.24C55.1701 236.88 57.1501 236.39 58.4001 235.05C59.6501 233.71 60.1901 231.52 59.8501 229.77C59.5101 228.01 58.3101 226.68 55.9901 222.68C53.6701 218.68 50.2301 212 46.5901 207.36C42.9601 202.72 39.1301 200.13 35.9801 197.8C32.8301 195.47 30.3501 193.42 28.9001 191.62C27.4501 189.82 27.0201 188.26 28.1001 187.59C29.1901 186.92 31.7801 187.13 34.6001 187.88C37.4201 188.62 40.4701 189.9 42.6501 190.48C44.8401 191.06 46.1601 190.94 46.3701 189.92C46.5801 188.9 45.6701 186.99 43.5901 183.73C41.5101 180.47 38.2701 175.86 36.3501 172.35C34.4301 168.84 33.8201 166.43 34.0501 164.71C34.2801 162.99 35.3401 161.96 36.7501 161.97C38.1701 161.97 39.9301 163.02 42.2701 165.94C44.6001 168.85 47.5001 173.64 49.2801 175.4C51.0601 177.17 51.7301 175.92 52.2201 171.89C52.7101 167.86 53.0401 161.04 53.6501 157.51C54.2601 153.98 55.1501 153.73 56.1401 154.24C57.1301 154.75 58.2101 156.01 59.3301 160.55C60.4401 165.09 61.5901 172.92 62.7601 177.17C63.93 181.43 65.12 182.12 67.2001 182.05C69.2801 181.98 72.2601 181.15 76.3801 181.75C80.5 182.35 85.7701 184.37 88.5401 185.93C91.3101 187.48 91.5901 188.55 90.9301 189.52C90.2701 190.49 88.66 191.36 86.8101 191.4C84.9601 191.44 82.8701 190.65 80.7301 190.04C78.5801 189.42 76.3701 188.95 74.5001 189.82C72.6301 190.68 71.1001 192.86 70.7501 194.81C70.4001 196.76 71.2401 198.48 72.0401 199.73C72.8401 200.99 73.6201 201.79 74.8701 202.11C76.1201 202.44 77.8501 202.3 79.9601 201.36C82.0701 200.42 84.5501 198.69 87.1601 197.21C89.7601 195.72 92.4901 194.47 93.9901 194.12C95.5001 193.76 95.8 194.3 94.5301 196.77C93.2601 199.24 90.43 203.64 87.2401 208.69C84.0501 213.73 80.4901 219.42 78.3701 222.91C76.2501 226.4 75.5701 227.7 75.6901 228.73C75.8101 229.77 76.7501 230.54 78.6601 230.57C80.5801 230.6 83.4801 229.88 85.0401 230.01C86.6001 230.15 86.8101 231.14 88.7901 242.35C90.7701 253.56 94.5301 274.98 96.6801 284.52C98.8401 294.06 99.3901 291.71 101.16 285.42C102.93 279.13 105.9 268.9 109.23 259.76C112.56 250.61 116.25 242.55 121.16 235.59H121.18Z" fill="white"/>
<path fill-rule="evenodd" clip-rule="evenodd" d="M62.9499 245.39C59.7399 255.98 61.6099 274.82 65.5599 294.46C69.5099 314.1 75.5499 334.54 82.9899 343.84C90.4199 353.13 99.2499 351.28 107.14 348.54C115.03 345.81 121.97 342.2 124.16 354.33C125.12 359.66 125.16 368.02 124.91 377.36H251.54C252.17 358.29 252.48 335.01 254.07 323.38C256.16 308.05 260.46 312.98 267.07 321.02C273.68 329.06 282.6 340.21 285.01 353.73C286.37 361.36 285.67 369.74 284.55 377.36H310.67C311.47 373.93 312.18 370.55 312.77 367.31C316.24 348.21 315.39 333.9 304.67 315.68C293.95 297.47 273.36 275.35 258.15 257.44C242.94 239.53 233.12 225.82 226.78 218.37C220.44 210.92 217.6 209.72 211.59 209.46C205.58 209.2 196.42 209.89 187.65 210.29C178.89 210.68 170.52 210.77 162.49 212.68C154.45 214.59 146.74 218.3 139.35 224.64C131.96 230.97 124.88 239.92 119.4 253.53C113.91 267.14 110.03 285.42 107.43 296.84C104.83 308.26 103.53 312.81 101.58 314.06C99.6299 315.31 97.0299 313.27 94.5999 300.08C92.1699 286.89 89.8999 262.56 87.9499 249.04C85.9999 235.52 84.3599 232.81 79.3999 232.63C74.4399 232.45 66.1699 234.8 62.9599 245.39H62.9499Z" fill="#DFE868"/>
<path fill-rule="evenodd" clip-rule="evenodd" d="M229.48 367.13C229.11 365.91 229.16 366.58 229.27 364.89C230.56 364.79 231.3 364.65 232.94 364.62C234.86 364.59 233.79 364.84 235.92 364.73L237.15 363.88C237.65 362.51 237.13 363.25 237.98 362.08L236.94 361.65C237.42 360.44 237.54 360.52 237.81 359.09C236.53 358.48 237.09 359.2 236.91 357.78C236.54 357.29 236.95 357.48 236.13 356.96C235.58 356.61 236.46 356.9 234.95 356.41C234.87 356.39 234.78 356.37 234.68 356.33L230.47 355.69C227.36 355.23 215.5 354.79 209.57 352.62C205.86 351.25 207.69 347.69 205.49 347.75C198.28 347.86 190.67 354.62 185.03 356.91C187.06 357.7 185.87 357.51 187.87 357.46C191.29 357.41 188.12 357.53 190.11 357.97C190.7 358.1 190.31 357.97 191.45 357.84C192.07 357.78 193.01 357.51 194.15 358.4C197.19 359.51 197.37 358.03 199.75 359C200.73 359.39 199.77 358.85 200.5 359.43C201.26 360.02 200.9 358.98 201.18 360.6C206.5 361.41 209.65 361.35 211.52 361.63C211.4 361.69 211.23 361.63 211.15 361.78C210.98 362.11 208.17 362.36 207.77 362.4L194.97 364.56C191.03 365.33 180.77 367.27 184.21 373.49L185.5 373.53C185.8 373.58 186.48 373.81 186.99 373.91C188.06 373.88 187.91 373.91 188.69 373.62C191.73 375.45 187.61 371.68 191.68 375.73C192.23 375.37 191.81 374.87 194.55 375.06C195.32 375.18 195.3 375.17 196 375.43C196.09 375.46 196.25 375.78 196.33 375.67C196.41 375.56 196.52 375.84 196.62 375.93C199.38 375.72 198.08 375.57 200.55 376.38C201.47 376.68 202.06 376.7 202.87 377.1C203.1 377.21 203.27 377.31 203.41 377.39H204.69L204.8 376.65C207.2 376.46 206.51 376.81 208.66 376.68L208.55 377.39H210.26L210.86 376.93L211.42 377.39H214.08L214.4 375.34L222.27 375.51C222.86 375.53 223.06 375.52 223.67 375.7C224.82 376.02 224.21 375.91 224.75 376.37C226.84 376.21 226.84 376.63 228.07 376.33L227.91 377.39H249.09C249.06 377.22 249.04 377.01 249.01 376.77L251.71 377.18C252.62 371.26 248.84 370.11 242.98 369.22L242.81 370.29C240.37 368.62 240.87 370.24 239.11 369.17C232.41 368.15 227.76 369.17 222.04 368.78C222.16 368.72 222.37 368.52 222.41 368.63C222.45 368.75 222.7 368.51 222.78 368.49C222.89 368.46 223.41 368.29 223.57 368.26L229.47 367.15L229.48 367.13Z" fill="#D7DD5E"/>
<path fill-rule="evenodd" clip-rule="evenodd" d="M212.1 136.83C211.44 134.23 212.04 130.6 213.73 128.55C215.42 126.5 218.2 126.01 220.68 126.68C223.16 127.35 225.34 129.16 226.79 130.91C228.24 132.66 228.97 134.36 228.78 135.99C228.6 137.62 227.51 139.19 226.24 140.22C224.97 141.25 223.52 141.73 221.89 142.03C220.26 142.33 218.44 142.45 216.57 141.73C214.7 141.01 212.76 139.43 212.1 136.83Z" fill="#FFE8B2"/>
<path fill-rule="evenodd" clip-rule="evenodd" d="M148.38 136.79C147.71 134.19 148.32 130.56 150.01 128.51C151.7 126.46 154.48 125.97 156.96 126.63C159.44 127.3 161.62 129.11 163.07 130.86C164.52 132.61 165.25 134.31 165.07 135.94C164.89 137.57 163.8 139.14 162.53 140.17C161.26 141.2 159.81 141.68 158.18 141.98C156.55 142.28 154.74 142.4 152.86 141.68C150.99 140.95 149.05 139.38 148.39 136.78L148.38 136.79Z" fill="#FFE8B2"/>
<path fill-rule="evenodd" clip-rule="evenodd" d="M144.53 63.68C142.56 65.35 139.44 68.77 137.13 73.2C134.83 77.62 133.34 83.05 131 85.13C128.66 87.21 125.46 85.95 123.6 82.3C121.74 78.66 121.22 72.64 123.3 64.87C125.38 57.1 130.07 47.58 136.87 39.59C143.67 31.6 152.59 25.13 160.25 20.33C167.91 15.54 174.3 12.41 183.33 13.27C192.36 14.13 204.04 18.96 215.07 25.5C226.11 32.04 236.52 40.29 242.09 46.17C247.66 52.04 248.41 55.54 247.5 58.19C246.59 60.84 244.03 62.65 243.35 65.82C242.67 68.98 243.88 73.5 244.49 77.87C245.1 82.24 245.12 86.47 244.13 89.77C243.13 93.07 241.13 95.45 239.05 95.41C236.97 95.37 234.81 92.92 232.88 88.98C230.95 85.04 229.24 79.61 226 77.72C222.77 75.82 218.01 77.46 210.46 78.65C202.91 79.84 192.58 80.58 183.85 79.43C175.12 78.28 167.98 75.23 163.15 72.29C158.32 69.35 155.79 66.53 153.67 64.86C151.55 63.19 149.84 62.66 148.58 62.37C147.32 62.07 146.5 62 144.53 63.67V63.68Z" fill="#DCB874"/>
<path fill-rule="evenodd" clip-rule="evenodd" d="M76.21 201.08C71.38 196.02 71.33 197.81 73.16 192.02C78.56 190.32 80.73 192.28 84.95 195.31L76.21 201.08ZM36.26 163.23C45.75 169.11 45.27 182.31 53.69 182.28C60.57 172.17 49.88 167.19 56.15 158.27C59.07 164.23 56.47 176.8 62.66 185.64C69.71 185.68 82.02 178.39 88.06 189.02C81.52 188.91 74.47 182.11 68.96 189.59C64.08 196.21 70.08 202.18 75.36 205.85C87.11 204.47 85.09 199.15 93.1 194.61C91.89 201.41 84.15 207.7 80.39 214.05C74.06 224.71 75.07 229.02 63.66 232.31C48.75 190.83 32.42 199.52 29.54 188.21C36.95 190.34 42.2 195.49 49.72 193.2C51.85 182.91 37.31 178.87 36.28 163.23H36.26ZM48.68 168.64C43 164.87 43.67 157.06 33.89 158.87C24.07 171.07 40.42 178 41.59 187.18C33.47 186.22 34.91 180.86 25.58 183.69C20.72 197.04 35.66 198.59 43.75 206.15C47.66 209.81 52.72 223.97 59.96 232.45C46.04 241.09 44.76 229.14 51.01 272.95C70.55 409.87 105.69 351.26 120.92 346.57L119.14 377.39H124.31C126.3 352.32 127.98 327.06 127.98 301.23C114.17 304.99 133.42 330.85 112.28 346.41C96.72 357.86 86.39 364.2 73.75 344.01C63.8 328.12 51.54 254.98 52.64 240.62C59.98 237.78 77.5 233.78 84.95 232.39L87.08 248.05C77.07 254.4 58.2 251.83 56.06 259.66C60.25 262.93 86.31 254.48 88.09 253.64C98.65 280.73 88.73 308.42 101.49 310.93C105.46 223.7 146.87 223.89 159.03 207.98C153.84 204.31 150.32 208.37 137.47 216.93C109.26 235.72 108.19 257.7 99.44 280.42L89.07 228.49C83.03 226.03 85.22 227.18 78.96 227.98C80.88 217.82 95.01 205.91 98.55 195.9C91.64 177.26 83.19 178.05 65.95 179.23C61.1 171.28 63.69 157.58 59.9 153.48C49.74 142.48 49.13 164.85 48.67 168.66L48.68 168.64Z" fill="#323234"/>
<path fill-rule="evenodd" clip-rule="evenodd" d="M256.2 320.96C261.82 324.69 266.9 333.1 271.23 338.83C282.45 353.62 280.45 354.01 275.6 377.37H281.2C283.67 364.35 285.34 351.67 282.53 345.62C279.34 338.77 261.81 319.6 258.45 313.77C253.87 305.82 258.78 305.19 254.08 298.16C247.4 299.93 250.55 298.59 251.21 322.66C251.41 330.08 252.37 346.54 253.17 353.62C253.99 361 254.36 369.14 254.71 377.36H259.71C259.62 375.15 259.55 373.29 259.48 371.99C258.59 354.73 258.6 337.81 256.2 320.96ZM321.95 341.76V353.07C321.36 359.51 319.79 366.73 317.22 375.48C317.06 376.02 316.88 376.65 316.68 377.37H311.43C314.33 365.89 316.68 355.57 316.96 352.14C319.95 316.35 263.17 246.15 239.55 227.35C234.58 223.39 218.53 214.52 216.67 211.31C223.63 205.4 241.19 221.47 245.94 225.89C266.59 245.12 293.23 279.29 306.64 303.37C315.5 319.28 320.72 329.87 321.94 341.77L321.95 341.76Z" fill="#323234"/>
<path fill-rule="evenodd" clip-rule="evenodd" d="M241.94 109.59C249.04 109.62 250.22 104.16 259.67 108.37C263.86 120.34 260.42 132.92 245.65 131.41C245.8 124.5 249.51 120.96 246.13 115.78C234.22 120.54 245.85 169.69 211.14 183.67C195.93 189.8 198.77 187.83 198.67 205.75H177.3L177.22 188.07C160.22 174.98 147.74 186.67 139.47 136.64C138.24 129.16 138.64 117.71 132.91 113.58C129.25 121.62 136.94 152.66 140.22 162.22C147.6 183.73 158.48 181.68 171.92 191.38L172.54 204.15C165.51 207.85 167.66 202.7 163.9 208.8C169.09 212.24 208.5 212.24 213.69 208.8C208.86 201.17 209.17 209.81 204.63 202.87C196.8 190.88 217.09 187.19 225.98 180.44C237.92 171.37 240.78 151.73 244.33 137.91C257.48 133.02 268.05 135.92 266.16 113.61C264.59 95.13 241.2 99.14 241.93 109.59H241.94ZM114.26 111.36C125.51 107.6 126.16 115.13 131.55 108.63C119.57 99.16 104.45 107.25 106.62 123.24C108.09 134.08 128.76 149.08 133.05 134.82C127.96 132.55 122.51 137.15 115.92 130.58C109.59 124.27 110.6 118.72 114.26 111.35V111.36Z" fill="#323234"/>
<path fill-rule="evenodd" clip-rule="evenodd" d="M193.77 377.37L193.79 337.37C193.78 327.24 192.02 320.52 192.08 309.46C192.18 289.71 192.09 269.94 192.09 250.19H187.16V339.08C187.11 350.6 188.84 358.25 188.86 368.65V377.38H193.78L193.77 377.37Z" fill="#323234"/>
<path fill-rule="evenodd" clip-rule="evenodd" d="M150.57 57.19C147.5 66.6 175.14 85.33 205.01 82.08C212.95 81.21 221.16 78.77 227.98 77.65C231.85 98.97 230.34 100.39 236.48 102.06C236.48 88.52 234.39 86.67 233.05 75.58C239.86 70.32 260.77 58.62 254.7 47.6C240.77 58.13 250.2 69.93 205.97 76.47C195.76 77.98 181.24 76.42 172.12 72.68C156.21 66.14 158.24 55.87 150.57 57.2V57.19Z" fill="#323234"/>
<path fill-rule="evenodd" clip-rule="evenodd" d="M145.63 23.47C155.26 25.14 146.44 14.92 168.12 7.28C181.25 2.66 190.76 4.2 203.09 10.38C223.23 20.47 234.52 39.48 259.48 39.51C257.45 32.03 240.13 31.41 230.55 24.03C217.36 13.87 204.95 2.31 188.5 0H176.48C173.68 0.38 170.77 1.02 167.72 1.97C158.77 4.74 144.04 14.18 145.64 23.47H145.63Z" fill="#323234"/>
<path fill-rule="evenodd" clip-rule="evenodd" d="M179.22 155L196.82 154.74C195.55 162.19 195.32 168.82 187.02 171.32C180.28 165.81 181.8 160.4 179.22 155ZM172.64 150.06C172.85 168.6 191.06 188.87 199.2 166.78C201.07 161.71 203.68 153.85 202.51 149.21C197.18 147.43 180.01 149.48 172.64 150.06Z" fill="#323234"/>
<path fill-rule="evenodd" clip-rule="evenodd" d="M119.75 95.47C121.05 93.38 120.66 95.93 120.73 92.32C120.73 92.16 119.97 87.57 119.9 87.3C119.13 84.15 118.02 80.98 117.38 78.09C113.28 59.59 119.96 46.83 131.82 35.02C136.29 30.56 136.4 32.08 134.97 27.56C133.41 27.39 134.73 26.87 132.22 27.75C120.59 31.83 108.8 56.58 111.89 77C112.29 79.65 113.67 84.95 114.37 87.69C115.77 93.16 114.91 93.7 119.75 95.47Z" fill="#323234"/>
<path fill-rule="evenodd" clip-rule="evenodd" d="M172.36 39.93C177.32 51.6 226.6 62.94 239.9 44.3C228.76 38.16 222.02 61.09 181.13 40.43C173.7 36.68 173.78 38.8 172.36 39.92V39.93Z" fill="#323234"/>
<path fill-rule="evenodd" clip-rule="evenodd" d="M175.23 243.46C166.74 231.94 168.46 221.21 160.29 223.29C159.86 227.65 163.65 232.5 166.12 236.68C169.99 243.24 169.03 247.55 175.79 250.33C181.92 245.32 187.12 217.72 183.87 212.05C178.64 216.97 176.3 235.44 175.23 243.46Z" fill="#323234"/>
<path fill-rule="evenodd" clip-rule="evenodd" d="M201.81 248.68C207.25 247.02 219.79 225.83 216.89 220.42C210.35 223.08 210.91 230.24 202.38 241.82C201.51 233.84 201.33 219.16 197.03 213.7C191.78 218.61 194.33 214.95 194.79 220.89C195.04 224.11 195.39 228.43 195.8 231.66C196.59 237.77 196.61 244.43 201.82 248.69L201.81 248.68Z" fill="#323234"/>
<path fill-rule="evenodd" clip-rule="evenodd" d="M129.48 95.61C137.02 92.55 139.32 78.56 141.28 70.71C142.95 63.99 144.57 66.49 139.49 62.27C135.16 67.76 135.65 72.8 133.56 79.66C131.46 86.54 126.62 90.27 129.49 95.62L129.48 95.61Z" fill="#323234"/>
<path fill-rule="evenodd" clip-rule="evenodd" d="M183.3 140.47L191.03 141.16C191.93 136.8 190.86 116.92 188.94 113.43C184.97 115.28 186.65 113.72 185.21 118.23L183.31 140.48L183.3 140.47Z" fill="#323234"/>
<path fill-rule="evenodd" clip-rule="evenodd" d="M246.33 100.69C249.58 95.03 247.32 91.14 248.14 84.11C248.83 78.22 251.79 75.4 247.55 69.56C240.03 71.62 241.41 96.61 246.33 100.69Z" fill="#323234"/>
<path fill-rule="evenodd" clip-rule="evenodd" d="M156.34 116.44C160.57 119.79 160.37 119.89 165.36 119.73L169.31 112.67C164.14 107.8 167.03 109.26 160.71 108.49C157.15 111.78 156.98 111.37 156.34 116.44Z" fill="#323234"/>
<path fill-rule="evenodd" clip-rule="evenodd" d="M215.67 119.07L216.36 111.36L207.2 110.16C204.37 118.31 207.15 121.91 215.67 119.07Z" fill="#323234"/>
<path fill-rule="evenodd" clip-rule="evenodd" d="M43.51 57.29C42.67 58.86 41.43 62.28 39.6 64.97C37.77 67.66 35.35 69.63 34 70.74C32.65 71.85 32.38 72.1 33.67 73.32C34.96 74.54 37.81 76.73 39.78 79.07C41.75 81.41 42.83 83.9 43.53 85.49C44.22 87.09 44.53 87.8 44.79 87.39C45.05 86.98 45.28 85.45 46.24 83.09C47.2 80.73 48.9 77.54 50.99 75.34C53.08 73.14 55.57 71.93 56.37 71.22C57.17 70.51 56.28 70.3 55.07 69.64C53.86 68.98 52.33 67.88 50.85 66.06C49.36 64.25 47.91 61.72 46.98 59.96C46.05 58.2 45.63 57.21 45.2 56.58C44.78 55.95 44.35 55.69 43.51 57.26V57.29Z" fill="white"/>
<path fill-rule="evenodd" clip-rule="evenodd" d="M38.47 68.42C45.06 66.85 41.26 68.57 45.16 62.9L51 70.9L47.83 79.29C54.05 79.36 61.34 74.49 65.56 71.65C58.27 63.46 59.98 72.45 51.82 64.08C44.79 56.88 50.02 54.63 44.47 47.67C41.88 50.2 38.34 63.13 38.48 68.41L38.47 68.42Z" fill="#323234"/>
<path fill-rule="evenodd" clip-rule="evenodd" d="M24.49 73.1C34.77 79.02 37.58 74.47 42.11 88.46C45.15 97.85 39.47 92.57 46.96 95.6L49.87 83.63C41.97 78.79 46.06 80.44 38.89 73.96C34.34 69.84 27.56 66.36 24.49 73.11V73.1Z" fill="#323234"/>
<path fill-rule="evenodd" clip-rule="evenodd" d="M18.3701 114.69C17.5301 116.27 16.2901 119.68 14.4501 122.37C12.6201 125.06 10.2001 127.03 8.85007 128.15C7.50007 129.26 7.23007 129.51 8.52007 130.73C9.81007 131.95 12.6601 134.14 14.6301 136.48C16.6001 138.82 17.6801 141.31 18.3801 142.9C19.0801 144.5 19.3801 145.21 19.6401 144.8C19.9001 144.39 20.1301 142.86 21.0901 140.5C22.0501 138.14 23.7501 134.95 25.8401 132.75C27.9301 130.55 30.4201 129.34 31.2201 128.63C32.0201 127.92 31.1301 127.71 29.9201 127.05C28.7101 126.39 27.1801 125.29 25.7001 123.47C24.2101 121.66 22.7601 119.13 21.8301 117.37C20.9001 115.61 20.4801 114.62 20.0501 113.99C19.6301 113.36 19.2001 113.1 18.3601 114.67L18.3701 114.69Z" fill="white"/>
<path fill-rule="evenodd" clip-rule="evenodd" d="M0.0200098 129.95C13.37 136.76 11.81 136.86 16.29 135.57C16.47 130.45 15.8 133.25 11.84 128.02L17.53 121.84L26.14 125.26C26.31 121.19 20.06 106.4 18.37 103.68C11.73 112.72 17.66 111.5 12.76 119.24C7.05001 128.26 3.83001 120.57 0.0100098 129.5L0.0300098 129.95H0.0200098Z" fill="#323234"/>
<path fill-rule="evenodd" clip-rule="evenodd" d="M20.0601 152.44C25.0601 143.76 20.9801 137.81 31.9401 131.58C40.0201 126.98 35.0401 134.91 38.5701 126.25C31.4401 122.63 26.8601 127.29 21.8001 133.27C15.7301 140.45 12.9301 144.04 20.0501 152.44H20.0601Z" fill="#323234"/>
</svg>
