<svg width="282" height="378" viewBox="0 0 282 378" fill="none" xmlns="http://www.w3.org/2000/svg">
<path fill-rule="evenodd" clip-rule="evenodd" d="M35.17 122.2H246.67C266.02 122.2 281.84 138.03 281.84 157.37V342.79C281.84 362.14 266.01 377.96 246.67 377.96H35.17C15.83 377.96 0 362.13 0 342.79V157.37C0 138.02 15.83 122.2 35.17 122.2Z" fill="#FFF899"/>
<path fill-rule="evenodd" clip-rule="evenodd" d="M12.28 296.55C10.67 287.2 9.43999 278.84 8.26999 270.15C7.09999 261.46 5.97999 252.42 5.27999 247.17C4.56999 241.92 4.26999 240.46 4.36999 239.45C4.47999 238.44 4.98999 237.88 6.70999 237.65C8.42999 237.42 11.36 237.51 13.28 237.15C15.21 236.79 16.13 235.99 16.46 235.01C16.79 234.02 16.51 232.86 15.6 231.47C14.7 230.08 13.16 228.47 11.28 226.72C9.39999 224.96 7.16999 223.06 5.87999 221.36C4.58999 219.66 4.24999 218.17 4.26999 215.15C4.28999 212.13 4.67999 207.58 5.40999 204.04C6.12999 200.5 7.18999 197.97 9.21999 195.23C11.24 192.49 14.23 189.54 16.35 186.82C18.46 184.1 19.7 181.62 19.96 176.88C20.21 172.14 19.48 165.15 19.89 160.93C20.29 156.72 21.82 155.27 23.47 155.79C25.12 156.3 26.88 158.76 28.21 164.17C29.53 169.58 30.42 177.95 31.46 182.71C32.5 187.47 33.71 188.63 35.63 190.34C37.55 192.05 40.18 194.31 41.64 196.5C43.1 198.69 43.4 200.79 42.74 204.79C42.08 208.79 40.45 214.69 38.52 219.22C36.59 223.75 34.36 226.91 34.15 228.56C33.94 230.21 35.75 230.35 37.52 230.49C39.29 230.63 41.01 230.77 41.76 231.11C42.51 231.45 42.3 231.98 42.8 235.18C43.3 238.37 44.52 244.23 46.1 252.89C47.68 261.55 49.62 273.02 50.78 280.01C51.93 287 52.29 289.51 52.89 290.19C53.48 290.87 54.31 289.73 56.38 283.19C58.44 276.65 61.74 264.72 65.76 254.58C69.78 244.43 74.52 236.07 81.16 229.12C87.8 222.17 96.35 216.64 103.21 213.18C110.06 209.72 115.22 208.32 119.15 207.85C123.08 207.37 125.77 207.81 127.03 207.58C128.28 207.35 128.1 206.44 128.27 204.09C128.44 201.73 128.96 197.93 128.97 195.05C128.98 192.17 128.49 190.23 126.92 188.76C125.35 187.28 122.69 186.27 119.53 184.62C116.37 182.97 112.71 180.68 109.36 177.58C106.02 174.47 102.99 170.55 100.32 164.63C97.65 158.72 95.33 150.81 93.92 145.35C92.5 139.89 91.99 136.86 91.11 135.54C90.24 134.22 89.01 134.61 87.25 135.41C85.5 136.21 83.22 137.42 80.36 137.46C77.5 137.51 74.06 136.39 71 134.05C67.93 131.7 65.24 128.13 64.01 124.66C62.78 121.2 63.01 117.85 64.65 115C66.28 112.14 69.32 109.78 71.34 108.57C73.36 107.36 74.35 107.29 74.78 106.48C75.21 105.67 75.08 104.1 74.69 100.87C74.3 97.65 73.65 92.77 72.71 88.18C71.77 83.6 70.53 79.31 69.74 74.78C68.95 70.25 68.61 65.48 69.27 60.35C69.94 55.22 71.61 49.74 74.58 44.86C77.55 39.98 81.81 35.69 86.71 31.9C91.6 28.11 97.12 24.81 100.15 22.7C103.18 20.6 103.71 19.7 105.63 17.05C107.54 14.41 110.84 10.03 116.39 6.93001C121.94 3.83001 129.75 2.02001 136.74 1.88001C143.73 1.74001 149.91 3.27001 157.44 7.40001C164.97 11.53 173.86 18.25 181.95 23.37C190.05 28.49 197.36 32.02 202.74 34.23C208.12 36.44 211.58 37.35 212.55 39.43C213.51 41.51 211.98 44.76 210.82 47.83C209.66 50.9 208.87 53.78 207.39 56.14C205.91 58.5 203.75 60.33 202.72 62.12C201.7 63.91 201.82 65.65 201.67 72.72C201.52 79.79 201.1 92.2 200.95 98.63C200.8 105.06 200.9 105.51 202.16 105.34C203.41 105.17 205.82 104.39 208.36 104.17C210.91 103.94 213.6 104.28 215.74 105.44C217.88 106.6 219.46 108.6 219.74 112.36C220.02 116.12 219 121.65 217.56 125.14C216.13 128.63 214.28 130.08 211.59 131.29C208.9 132.5 205.36 133.46 203.03 133.95C200.7 134.43 199.58 134.43 198.79 134.54C198 134.64 197.54 134.85 196.59 138.64C195.64 142.43 194.19 149.79 192.62 155.24C191.04 160.69 189.34 164.22 186.85 168.31C184.36 172.4 181.1 177.04 177.33 180.21C173.56 183.37 169.27 185.05 166.12 186.22C162.97 187.39 160.95 188.05 159.66 188.57C158.38 189.09 157.83 189.47 157.5 192.25C157.17 195.03 157.05 200.21 157 203.08C156.95 205.95 156.97 206.51 159.04 206.9C161.11 207.3 165.22 207.53 168.48 208.41C171.73 209.29 174.12 210.83 178.23 213.13C182.34 215.43 188.18 218.49 192.38 221.51C196.58 224.52 199.16 227.49 202.74 231.83C206.32 236.17 210.91 241.89 214.71 247.58C218.51 253.28 221.52 258.95 223.8 265.5C226.08 272.05 227.63 279.47 229.2 288.2C230.77 296.93 232.36 306.97 234.12 318.89C235.88 330.81 237.8 344.62 239.15 357.59C239.86 364.36 240.41 370.9 240.96 377.95H76.76C77.02 373.66 77.26 369.7 77.46 366.21C78.21 353.57 78.59 347.1 78.15 344.22C77.7 341.34 76.43 342.07 74.61 343.46C72.79 344.85 70.42 346.91 67.31 349.61C64.2 352.31 60.36 355.65 56.7 357.43C53.04 359.21 49.57 359.42 45.75 359.1C41.94 358.78 37.79 357.91 34.86 355.99C31.93 354.07 30.21 351.08 27.58 346.01C24.95 340.93 21.4 333.76 18.64 325C15.87 316.24 13.88 305.88 12.27 296.53L12.28 296.55Z" fill="white"/>
<path fill-rule="evenodd" clip-rule="evenodd" d="M33.34 240.82C27.52 236.65 19.88 233.66 15.24 237.2C10.59 240.73 8.92996 250.78 10.65 263.38C12.37 275.98 17.48 291.12 21.53 304.23C25.57 317.33 28.55 328.39 31.98 335.82C35.42 343.25 39.32 347.06 46.48 347.34C53.63 347.62 64.04 344.37 70.27 343.06C76.5 341.76 78.54 342.41 80.4 351.93C81.55 357.83 82.63 367.12 83.2 377.96H231.9C228.53 348.26 225.24 310.13 218.7 283.17C211.7 254.34 200.99 238.27 193.8 229.19C186.61 220.11 182.95 218.02 176.14 216.37C169.34 214.72 159.39 213.52 152.37 212.54C145.35 211.57 141.26 210.82 136.75 210.73C132.24 210.64 127.32 211.19 121.74 212.59C116.16 213.98 109.94 216.21 104.36 219.51C98.78 222.81 93.86 227.18 88.84 232.98C83.82 238.79 78.71 246.04 74.53 255.84C70.35 265.65 67.1 278 64.82 286.13C62.54 294.26 61.24 298.16 60.27 300.54C59.3 302.91 58.66 303.75 57.01 301.48C55.35 299.2 52.69 293.8 50.88 285.65C49.08 277.49 48.14 266.58 45.66 258.45C43.18 250.32 39.16 244.98 33.34 240.81V240.82Z" fill="#DFE868"/>
<path fill-rule="evenodd" clip-rule="evenodd" d="M195.42 367.72C195.05 366.5 195.1 367.17 195.21 365.47C196.5 365.37 197.24 365.23 198.88 365.2C200.8 365.17 199.73 365.41 201.86 365.31L203.09 364.46C203.59 363.09 203.07 363.83 203.92 362.66L202.88 362.22C203.36 361.02 203.48 361.09 203.75 359.66C202.47 359.05 203.03 359.77 202.85 358.35C202.48 357.86 202.89 358.05 202.07 357.53C201.52 357.18 202.4 357.47 200.89 356.98C200.81 356.96 200.72 356.94 200.62 356.9L196.41 356.26C193.3 355.8 181.43 355.36 175.51 353.19C171.8 351.82 173.63 348.27 171.43 348.32C164.22 348.43 156.61 355.19 150.97 357.48C153 358.27 151.81 358.08 153.81 358.03C157.23 357.98 154.07 358.09 156.05 358.54C156.64 358.67 156.25 358.54 157.39 358.41C158.01 358.35 158.95 358.08 160.09 358.97C163.13 360.08 163.31 358.6 165.7 359.57C166.68 359.96 165.72 359.42 166.45 360C167.2 360.59 166.85 359.55 167.13 361.17C172.45 361.98 175.6 361.92 177.47 362.2C177.35 362.27 177.18 362.2 177.1 362.35C176.93 362.68 174.12 362.93 173.72 362.97L160.93 365.13C156.98 365.9 146.72 367.84 150.17 374.06L151.46 374.1C151.76 374.15 152.44 374.38 152.95 374.48C154.02 374.45 153.87 374.48 154.65 374.19C157.69 376.02 153.58 372.25 157.64 376.3C158.19 375.94 157.77 375.44 160.51 375.63C161.28 375.75 161.26 375.74 161.96 376C162.05 376.03 162.21 376.35 162.3 376.24C162.38 376.13 162.49 376.41 162.59 376.5C165.34 376.29 164.05 376.14 166.52 376.95C167.45 377.25 168.03 377.27 168.84 377.67C169.07 377.79 169.24 377.88 169.38 377.96H170.66L170.77 377.21C173.17 377.02 172.48 377.37 174.63 377.24L174.52 377.95H176.23L176.83 377.49L177.39 377.95H180.05L180.36 375.9L188.23 376.07C188.82 376.09 189.02 376.08 189.62 376.25C190.77 376.58 190.16 376.46 190.7 376.92C192.79 376.76 192.79 377.18 194.02 376.88L193.86 377.94H215.03C215 377.77 214.98 377.56 214.95 377.31L217.65 377.72C218.55 371.8 214.78 370.65 208.92 369.75L208.75 370.82C206.31 369.15 206.81 370.77 205.05 369.7C198.35 368.68 193.7 369.7 187.98 369.31C188.1 369.24 188.31 369.05 188.35 369.16C188.39 369.28 188.64 369.04 188.72 369.02C188.83 368.99 189.35 368.83 189.51 368.79L195.41 367.68L195.42 367.72Z" fill="#D7DD5E"/>
<path fill-rule="evenodd" clip-rule="evenodd" d="M166.16 137.88C165.5 135.28 166.1 131.65 167.79 129.6C169.48 127.54 172.26 127.06 174.74 127.73C177.22 128.4 179.4 130.21 180.85 131.96C182.3 133.71 183.03 135.41 182.85 137.04C182.67 138.67 181.58 140.24 180.31 141.27C179.04 142.3 177.59 142.78 175.96 143.08C174.33 143.38 172.51 143.5 170.64 142.78C168.77 142.06 166.83 140.48 166.17 137.88H166.16Z" fill="#FFE8B2"/>
<path fill-rule="evenodd" clip-rule="evenodd" d="M102.43 137.84C101.77 135.24 102.37 131.61 104.06 129.56C105.75 127.5 108.53 127.02 111.01 127.69C113.49 128.35 115.66 130.17 117.12 131.92C118.57 133.67 119.3 135.37 119.12 137C118.94 138.63 117.85 140.2 116.58 141.23C115.31 142.26 113.86 142.74 112.23 143.04C110.6 143.34 108.79 143.46 106.91 142.74C105.04 142.01 103.1 140.44 102.44 137.84H102.43Z" fill="#FFE8B2"/>
<path fill-rule="evenodd" clip-rule="evenodd" d="M100.57 62.82C98.6 64.49 95.48 67.91 93.17 72.34C90.87 76.76 89.38 82.19 87.04 84.27C84.7 86.35 81.5 85.09 79.64 81.44C77.78 77.8 77.26 71.77 79.34 64.01C81.42 56.24 86.1 46.73 92.91 38.73C99.71 30.74 108.63 24.27 116.29 19.48C123.95 14.69 130.34 11.56 139.37 12.42C148.4 13.27 160.07 18.11 171.11 24.65C182.15 31.19 192.56 39.44 198.13 45.32C203.71 51.19 204.45 54.69 203.54 57.34C202.63 59.99 200.07 61.8 199.39 64.97C198.71 68.14 199.92 72.65 200.53 77.03C201.14 81.4 201.16 85.63 200.17 88.93C199.18 92.23 197.17 94.61 195.09 94.57C193.01 94.53 190.85 92.08 188.92 88.14C186.99 84.2 185.28 78.77 182.04 76.88C178.81 74.98 174.05 76.62 166.5 77.81C158.96 79 148.62 79.74 139.88 78.59C131.15 77.44 124.01 74.39 119.18 71.45C114.35 68.51 111.82 65.69 109.7 64.02C107.58 62.35 105.87 61.83 104.61 61.53C103.35 61.23 102.53 61.16 100.56 62.83L100.57 62.82Z" fill="#DCB874"/>
<path fill-rule="evenodd" clip-rule="evenodd" d="M73.83 377.97L75.52 347.3C65.12 350.11 36.54 388.5 17.23 329.84C7.69002 300.87 8.34002 269.95 1.52002 240.71C7.49002 236.67 8.02002 236.13 14.29 232.6C8.21002 226.43 2.60002 225.33 1.40002 216.28V207.23C3.60002 191.62 17.4 188.36 17.99 176.25C18.45 166.88 14.85 159.04 22.92 152.9C31.86 155.97 35.82 178.94 32.2 184.12C24.29 177.99 29.99 167.03 23.24 160.16C22.2 168.24 24.54 175.54 22.45 182.23C19.54 191.54 14.61 190.54 10.65 196.9C-0.429976 214.7 8.63002 220.58 20.05 231.83C33.31 229.27 31.49 227.53 36.71 214.71C40.2 206.16 45.68 194.82 33.06 192.83L36.16 200.99C31.28 207.15 8.81002 227.37 8.20002 207.61C19.97 208.23 5.91003 209.77 17.62 210.51C16.04 202.67 11.76 206.04 12.46 200.28C19.78 198.24 15.62 203.69 24.24 205.54C22.39 196.94 18.44 202.43 18.05 192.84C26.05 194.45 24.07 200.3 29.9 199.67C30.52 193.8 23.72 195.21 27.25 185.5C35.39 183.14 56.7 193.63 37.35 225.5C44.91 229.82 43.42 224.67 45.59 235.66C46.52 240.37 47.32 245.09 48.21 249.5C50.04 258.59 52.48 268.7 52.46 278.17C58.41 275.78 56.32 273.38 58.46 266.06C65.97 240.32 86.16 212.35 113.4 205.75C112.68 213.93 109.92 212.03 102.55 216.31C99.03 218.35 93 222.35 89.93 225.09C73.45 239.78 66.61 257.21 60.5 277.97C53.33 302.31 59.53 302.92 55.76 311.09C52.15 308.5 52.47 307.53 49.03 304.65C51.1 287.55 46.17 271.25 43.81 253.62C40.49 255.2 15.29 262.37 11.29 260.06C13.82 250.77 34.74 253.5 42.74 247.99L38.93 232.48L8.27002 240.59C6.77002 259.93 16.56 311.26 22.58 329.42C40.15 382.49 75.93 342.45 77.16 335.77C77.16 326.88 76.88 307.14 80.45 300.92C86.46 305.67 83.58 312.53 82.55 319.75C81.51 327.02 82.67 334.82 81.85 342.11C80.88 350.81 80.59 354.62 80.51 363.81L79.43 377.96H73.82L73.83 377.97ZM209.96 377.97L205.63 297.92H210.57C210.57 318.76 213.66 337.99 213.81 358.88C213.87 366.89 215.43 370.17 215.56 377.97H209.96ZM238.28 377.97C234.54 332.25 228.96 274.15 212.58 248.18C208.02 240.95 201.1 232.34 194.36 226.88C188.62 222.23 173.87 214.54 170.92 210.8C173.69 208.99 170.1 209.23 175.68 209.49C188.18 210.08 214.85 240.63 219.39 249.6C230.57 271.71 234.26 296.92 236.92 320.97C237.74 328.32 240.37 351.51 243.12 377.97H238.27H238.28Z" fill="#323234"/>
<path fill-rule="evenodd" clip-rule="evenodd" d="M196.12 108.19C202.85 112.73 200.89 103.63 214.48 108.11L215.31 125.88C210.28 130.32 207.29 132.3 201.3 130.91C199.62 122.09 205.94 123.66 200.16 115.51C190.79 123.48 197.79 170.61 166.61 183.21C150.24 189.83 154.59 185.35 154.57 205.74H131.51L131.43 188.06C119.11 178.6 108 181.33 100.4 161.12C93.8999 143.83 93.6399 117.26 89.2499 113.85C83.8299 121.15 88.9799 126.81 88.2599 134.82C82.6499 132.25 77.4299 137.31 70.3399 130.24C63.8099 123.74 64.7699 117.86 69.9999 111.35C80.7699 107.76 83.7099 115.34 84.9599 107.4C66.7899 94.2 48.5299 124.53 71.5299 137.3C80.9799 142.55 81.8799 137.88 89.4299 138.89C93.6999 152.93 92.7099 163.81 103.17 176.43C116.49 192.5 127.7 180.29 126.5 204.04C121.3 207.28 121.74 204.44 118.69 208.58C124.2 212.42 163.77 212.28 169.18 208.39C166.02 202.6 166.63 208.13 159.51 204.15L159.71 191.64C170.19 185.34 179.58 185.49 187.46 172.78C195.88 159.2 194.77 149.15 199.91 137.49C212.07 133.69 223.85 133.29 221.77 113.91C219.74 95.02 198.73 100.36 196.09 108.17L196.12 108.19Z" fill="#323234"/>
<path fill-rule="evenodd" clip-rule="evenodd" d="M147.58 377.97C147.78 327.3 148.95 257.96 147.34 254.09C144.62 247.57 148.11 251.83 143.23 250.54C139.55 256.65 141 270.23 142.1 277.47C143.43 286.22 143.39 333.6 143.2 377.96H147.59L147.58 377.97Z" fill="#323234"/>
<path fill-rule="evenodd" clip-rule="evenodd" d="M106.39 57.19C100.82 74.06 151.64 91.03 182.01 77.65C186.98 84.4 184.8 94.57 189.02 102.2C194.84 98.03 192.46 97.42 191.17 90.35C190.31 85.66 189.62 80.43 187.79 76.29C194.54 69.53 213.99 60.06 211.13 48.83C207.75 48.7 211.15 44.88 202.13 57.41C197.97 63.19 197.7 62.99 191.83 66.88C179.54 75.02 175.87 74.25 161.66 76.25C118.72 82.29 115.71 55.9 106.39 57.2V57.19Z" fill="#323234"/>
<path fill-rule="evenodd" clip-rule="evenodd" d="M102.44 24.41C112.28 17.55 107.39 12.21 125.03 6.69C136.56 3.08 148.71 4.75 158.87 10.53C177.12 20.9 190.1 39.49 213.87 39.51V34.57C186.68 33.99 171.71 4.09 144.2 0H131.55C128.2 0.47 124.68 1.31 120.94 2.6C113.86 5.05 95.76 15.97 102.45 24.41H102.44Z" fill="#323234"/>
<path fill-rule="evenodd" clip-rule="evenodd" d="M70.58 95.46H75.52C75.51 82.34 68.92 70.96 73.17 55.25C76.78 41.92 89.63 34.31 90.35 26.33C80.69 29.35 70.95 43.78 68.28 53.65C62.29 75.77 70.21 77.75 70.59 95.46H70.58Z" fill="#323234"/>
<path fill-rule="evenodd" clip-rule="evenodd" d="M194.1 44.44C192.02 43.15 194.59 43.44 190.94 43.45L178.58 47.04C148.12 54.96 142.59 39.25 126.57 37.86C131.87 57.55 188.98 58.48 194.1 44.44Z" fill="#323234"/>
<path fill-rule="evenodd" clip-rule="evenodd" d="M129.87 242.24C122.18 232.44 124.09 225.13 116.55 222.07C113.85 227.09 118.07 231.52 121.08 237.58C124.52 244.53 124.98 249.99 132.74 249.77C136.98 243.9 141.64 218.22 138.11 212.06C131.65 218.09 134.47 234.18 129.88 242.25L129.87 242.24Z" fill="#323234"/>
<path fill-rule="evenodd" clip-rule="evenodd" d="M155 248.12C162.53 248.33 162.83 243.76 166.11 237.03C169.73 229.58 174.58 226.44 171.05 220.28C164.72 225.51 162.69 234.22 158.3 240.17C154.99 231.69 156.78 218.25 151.29 213.69C148.25 219.24 151.23 242.87 155.01 248.11L155 248.12Z" fill="#323234"/>
<path fill-rule="evenodd" clip-rule="evenodd" d="M147.56 170.76C152.5 165.9 156.44 160.14 157.58 153.36C147.71 153.46 152.53 160.1 144.83 166.39C129.16 164.48 141.33 153.5 128.5 153.36C130.69 165.65 133.68 172.42 147.56 170.76Z" fill="#323234"/>
<path fill-rule="evenodd" clip-rule="evenodd" d="M82.39 95.18C90.08 95.1 90.77 88.62 93.05 81.71C95.05 75.65 98.77 68.28 94.72 62.83L82.39 95.18Z" fill="#323234"/>
<path fill-rule="evenodd" clip-rule="evenodd" d="M199.47 99.98C207.84 97.69 204.05 72.48 201.77 69.41C197.03 73.72 199.35 76.44 199.1 84C198.83 92.05 194.86 93.65 199.47 99.98Z" fill="#323234"/>
<path fill-rule="evenodd" clip-rule="evenodd" d="M139.19 140.47L145.26 141.1C146.18 136.8 145.12 116.93 143.19 113.43C139.43 115.18 139.66 109.13 139.78 126.77C139.82 131.77 138.24 136.71 139.19 140.47Z" fill="#323234"/>
<path fill-rule="evenodd" clip-rule="evenodd" d="M112.04 118.23L118.38 120.58L123.64 115.58C121.92 110.36 123.13 112 118.49 108.5C112.05 110.66 111.62 110.97 112.04 118.23Z" fill="#323234"/>
<path fill-rule="evenodd" clip-rule="evenodd" d="M162.25 119.07C170.79 121.91 173.57 118.31 170.77 110.56C163.01 109.95 159.4 110.55 162.25 119.07Z" fill="#323234"/>
<path fill-rule="evenodd" clip-rule="evenodd" d="M14.53 89.42C22.15 83.32 18.97 65.98 18.95 56.34C18.92 36.51 17.02 31.88 4.77997 32.44C-4.62003 44.58 9.22997 85.19 14.53 89.42Z" fill="#323234"/>
<path fill-rule="evenodd" clip-rule="evenodd" d="M22.9301 104.12C28.3201 97.66 18.9201 90.27 13.0801 95.44C8.88006 99.17 12.3401 104.57 16.9701 105.59H20.0001C21.0001 105.36 22.0001 104.89 22.9201 104.12H22.9301Z" fill="#323234"/>
</svg>
