<svg width="430" height="103" viewBox="0 0 430 103" fill="none" xmlns="http://www.w3.org/2000/svg">
<path d="M0 17.2304C131.155 49.3028 287.58 -24.1433 430 9.06678V103H0V17.2304Z" fill="url(#paint0_radial_18_139)"/>
<path d="M0 17.2304L3.30106 17.9772L4.94728 18.3507L5.7747 18.5417L6.18841 18.6373L6.60212 18.7241L9.91181 19.3928L11.5666 19.7315L12.3941 19.8965L13.2301 20.0442L16.557 20.6347L18.2205 20.93L18.6342 21.0082L19.0479 21.069L19.8839 21.1992L23.2195 21.7203L24.8916 21.9809L26.5636 22.2067C35.4929 23.4399 44.4738 24.2562 53.4634 24.7426C62.4616 25.2376 71.4684 25.3939 80.4839 25.2897C89.4907 25.1855 98.4975 24.8207 107.487 24.2649C125.475 23.1359 143.402 21.2514 161.295 19.0368C179.188 16.8222 197.038 14.2949 214.897 11.8111C232.755 9.33601 250.631 6.91299 268.55 4.89815C277.513 3.89941 286.486 2.99621 295.467 2.24933C304.456 1.50245 313.454 0.91189 322.461 0.52108C331.468 0.138956 340.492 -0.0521067 349.508 0.0260552C358.523 0.104217 367.538 0.434234 376.537 1.0769C385.535 1.72825 394.507 2.68356 403.428 4.00363L410.107 5.05447L416.761 6.24427L423.389 7.59039L429.983 9.07547L423.372 7.6425L416.735 6.35717L410.073 5.20211L403.393 4.186C394.473 2.91805 385.5 2.01484 376.511 1.42428C367.521 0.825043 358.514 0.529765 349.499 0.486342C340.492 0.451603 331.477 0.660035 322.478 1.06821C304.473 1.90194 286.52 3.51729 268.61 5.5495C250.7 7.57302 232.833 10.0134 214.983 12.4885C197.124 14.955 179.266 17.4909 161.373 19.6794C152.426 20.7737 143.463 21.7811 134.49 22.6583C125.518 23.5354 116.528 24.2649 107.522 24.7947C89.5252 25.8629 71.4512 26.1408 53.4462 25.0726C44.448 24.5342 35.4584 23.657 26.5378 22.3717L24.8657 22.1372L23.1936 21.868L19.8581 21.3295L19.022 21.1992L18.6083 21.1298L18.1946 21.0516L16.5312 20.7476L13.2042 20.131L12.3768 19.9747L11.5494 19.801L9.89457 19.4536L6.58489 18.7589L6.17118 18.672L5.75747 18.5765L4.93867 18.3854L3.29244 17.9946L0 17.2304Z" fill="url(#paint1_radial_18_139)"/>
<path d="M0 66.1076C131.155 85.7957 287.58 -2.40567 430 17.3606V103H0V66.0989V66.1076Z" fill="url(#paint2_radial_18_139)"/>
<path d="M0 66.1076L3.37001 66.5592L5.05933 66.785C5.61956 66.8545 6.1798 66.9413 6.74865 66.9934L10.1273 67.3582C11.2564 67.4798 12.3768 67.61 13.5145 67.6969L16.9018 67.9835L18.5997 68.1224L20.2977 68.2266C22.5644 68.3569 24.8226 68.5306 27.0894 68.5914C36.1479 68.9735 45.2151 68.9214 54.2736 68.5393C63.3321 68.1572 72.3734 67.445 81.3802 66.4723C90.3957 65.4997 99.3766 64.2751 108.332 62.8595C126.242 60.0196 144.031 56.4589 161.752 52.5856C179.473 48.7122 197.133 44.5436 214.802 40.4184C232.471 36.3019 250.157 32.2288 267.929 28.5551C276.815 26.7227 285.719 24.9771 294.656 23.3878C303.586 21.7898 312.549 20.3481 321.53 19.0976C330.52 17.847 339.535 16.7961 348.568 15.9971C357.609 15.2068 366.668 14.6597 375.735 14.4339C384.802 14.2168 393.878 14.3036 402.936 14.7726L409.728 15.1981L416.511 15.7627L423.277 16.4922L430.026 17.3693L423.277 16.5443L416.511 15.8756L409.728 15.3458L402.936 14.9637C393.878 14.5468 384.811 14.5121 375.752 14.7813C366.694 15.0505 357.644 15.6237 348.62 16.4574C339.596 17.2912 330.589 18.368 321.617 19.636C303.663 22.1893 285.831 25.4981 268.076 29.2065C250.32 32.9062 232.643 36.9793 214.974 41.1045C197.305 45.2123 179.645 49.3809 161.907 53.2369C153.038 55.1562 144.152 57.0061 135.249 58.7169C126.337 60.4365 117.399 62.0171 108.435 63.4067C90.5077 66.1858 72.4424 68.2093 54.3081 68.8867C45.2409 69.2167 36.1652 69.208 27.098 68.7825C24.8312 68.7043 22.5731 68.5219 20.3063 68.3743L18.6083 68.2614L16.9104 68.1051L13.5232 67.8011C12.3941 67.7143 11.265 67.5666 10.1445 67.4363L6.76588 67.0455C6.20565 66.9847 5.64542 66.8979 5.07657 66.8197L3.39587 66.5852L0 66.1076Z" fill="url(#paint3_radial_18_139)"/>
<path d="M430 44.1441V36.0413C285.563 -7.97252 127.69 94.2459 3.34416 103H128.879C217.87 70.7191 280.495 9.99603 430 44.1441Z" fill="url(#paint4_linear_18_139)"/>
<path style="mix-blend-mode:color-dodge" d="M430 44.1441V36.0413C285.563 -7.97252 127.69 94.2459 3.34416 103H128.879C217.87 70.7191 280.495 9.99603 430 44.1441Z" fill="url(#paint5_linear_18_139)"/>
<path style="mix-blend-mode:color-dodge" d="M430 44.1441V36.0413C285.563 -7.97252 127.69 94.2459 3.34416 103H128.879C217.87 70.7191 280.495 9.99603 430 44.1441Z" fill="url(#paint6_linear_18_139)"/>
<path d="M430 56.5024V36.0413C309.128 2.02352 251.019 52.5074 127.561 103H130.526C230.919 64.0406 321.625 11.9501 430 56.4937V56.5024Z" fill="url(#paint7_linear_18_139)"/>
<path style="mix-blend-mode:color-dodge" d="M430 56.5024V36.0413C309.128 2.02352 251.019 52.5074 127.561 103H130.526C230.919 64.0406 321.625 11.9501 430 56.4937V56.5024Z" fill="url(#paint8_linear_18_139)"/>
<path style="mix-blend-mode:color-dodge" d="M430 56.5024V36.0413C309.128 2.02352 251.019 52.5074 127.561 103H130.526C230.919 64.0406 321.625 11.9501 430 56.4937V56.5024Z" fill="url(#paint9_linear_18_139)"/>
<path d="M354.972 24.951L351.188 25.0292L349.301 25.0986C348.671 25.1247 348.042 25.1334 347.413 25.1681C344.896 25.281 342.38 25.4287 339.863 25.6284C334.838 26.0192 329.822 26.5837 324.84 27.3046L323.901 27.4348L322.97 27.5825L321.099 27.8777C320.479 27.9733 319.858 28.0862 319.238 28.1904L317.376 28.5117C316.135 28.7375 314.894 28.972 313.661 29.2065L311.808 29.5799C311.188 29.7015 310.576 29.8231 309.955 29.9621C305.025 31.0042 300.121 32.1853 295.26 33.5054C285.529 36.1455 275.945 39.2981 266.481 42.798C257.017 46.2892 247.674 50.1105 238.409 54.1054C229.135 58.0917 219.939 62.2429 210.751 66.4376C201.563 70.6236 192.392 74.853 183.196 79.0217C178.594 81.106 174 83.1903 169.38 85.2399C164.769 87.2895 160.14 89.3304 155.512 91.3365C150.875 93.3427 146.229 95.3228 141.575 97.2681L138.076 98.7271C136.912 99.2135 135.74 99.6911 134.576 100.169C132.241 101.124 129.896 102.071 127.561 103.009C129.888 102.027 132.215 101.055 134.542 100.065L136.283 99.3264L138.024 98.5795L141.506 97.0858C146.143 95.0883 150.763 93.0561 155.383 91.0065C164.614 86.916 173.801 82.73 182.972 78.5093C201.322 70.0765 219.594 61.4526 238.142 53.4454C247.425 49.4591 256.776 45.6379 266.266 42.1553C275.755 38.6901 285.365 35.5376 295.131 32.9583C304.887 30.3702 314.799 28.3033 324.797 26.9485C329.796 26.2711 334.821 25.7587 339.854 25.42C342.371 25.2463 344.888 25.1247 347.413 25.0379C348.042 25.0118 348.671 25.0031 349.301 24.9944L351.188 24.951L354.972 24.925V24.951Z" fill="url(#paint10_linear_18_139)"/>
<path style="mix-blend-mode:color-dodge" d="M354.972 24.951L351.188 25.0292L349.301 25.0986C348.671 25.1247 348.042 25.1334 347.413 25.1681C344.896 25.281 342.38 25.4287 339.863 25.6284C334.838 26.0192 329.822 26.5837 324.84 27.3046L323.901 27.4348L322.97 27.5825L321.099 27.8777C320.479 27.9733 319.858 28.0862 319.238 28.1904L317.376 28.5117C316.135 28.7375 314.894 28.972 313.661 29.2065L311.808 29.5799C311.188 29.7015 310.576 29.8231 309.955 29.9621C305.025 31.0042 300.121 32.1853 295.26 33.5054C285.529 36.1455 275.945 39.2981 266.481 42.798C257.017 46.2892 247.674 50.1105 238.409 54.1054C229.135 58.0917 219.939 62.2429 210.751 66.4376C201.563 70.6236 192.392 74.853 183.196 79.0217C178.594 81.106 174 83.1903 169.38 85.2399C164.769 87.2895 160.14 89.3304 155.512 91.3365C150.875 93.3427 146.229 95.3228 141.575 97.2681L138.076 98.7271C136.912 99.2135 135.74 99.6911 134.576 100.169C132.241 101.124 129.896 102.071 127.561 103.009C129.888 102.027 132.215 101.055 134.542 100.065L136.283 99.3264L138.024 98.5795L141.506 97.0858C146.143 95.0883 150.763 93.0561 155.383 91.0065C164.614 86.916 173.801 82.73 182.972 78.5093C201.322 70.0765 219.594 61.4526 238.142 53.4454C247.425 49.4591 256.776 45.6379 266.266 42.1553C275.755 38.6901 285.365 35.5376 295.131 32.9583C304.887 30.3702 314.799 28.3033 324.797 26.9485C329.796 26.2711 334.821 25.7587 339.854 25.42C342.371 25.2463 344.888 25.1247 347.413 25.0379C348.042 25.0118 348.671 25.0031 349.301 24.9944L351.188 24.951L354.972 24.925V24.951Z" fill="url(#paint11_linear_18_139)"/>
<path d="M430 60.6884V44.5783C359.178 26.9746 296.148 38.308 234.729 61.5568C294.993 43.3277 339.734 29.6581 430 60.6884Z" fill="url(#paint12_linear_18_139)"/>
<path d="M430 44.9344C413.908 40.9221 397.394 38.2038 380.855 36.988C364.315 35.7634 347.672 36.0326 331.158 37.6914C314.644 39.3415 298.276 42.3638 282.193 46.4542C266.102 50.5447 250.277 55.6947 234.729 61.5482C250.26 55.6426 266.059 50.4318 282.15 46.2805C298.233 42.1293 314.601 39.0462 331.123 37.3353C347.646 35.6158 364.315 35.2944 380.889 36.4582C397.463 37.6132 413.848 40.2447 430 44.2049V44.9257V44.9344Z" fill="url(#paint13_linear_18_139)"/>
<path style="mix-blend-mode:color-dodge" d="M430 44.9344C413.908 40.9221 397.394 38.2038 380.855 36.988C364.315 35.7634 347.672 36.0326 331.158 37.6914C314.644 39.3415 298.276 42.3638 282.193 46.4542C266.102 50.5447 250.277 55.6947 234.729 61.5482C250.26 55.6426 266.059 50.4318 282.15 46.2805C298.233 42.1293 314.601 39.0462 331.123 37.3353C347.646 35.6158 364.315 35.2944 380.889 36.4582C397.463 37.6132 413.848 40.2447 430 44.2049V44.9257V44.9344Z" fill="url(#paint14_linear_18_139)"/>
<path d="M430 101.228V67.1932C331.192 39.4544 271.023 67.1324 193.151 103H198.383C252.717 78.1532 327.219 48.5298 430 101.22V101.228Z" fill="url(#paint15_linear_18_139)"/>
<path style="mix-blend-mode:color-dodge" d="M430 101.228V67.1932C331.192 39.4544 271.023 67.1324 193.151 103H198.383C252.717 78.1532 327.219 48.5298 430 101.22V101.228Z" fill="url(#paint16_linear_18_139)"/>
<path d="M430 81.7573V64.0406C335.226 46.4195 296.225 63.9712 242.046 85.1704C242.046 85.1704 327.641 51.2482 430 81.7573Z" fill="url(#paint17_linear_18_139)"/>
<path style="mix-blend-mode:color-dodge" d="M430 81.7573V64.0406C335.226 46.4195 296.225 63.9712 242.046 85.1704C242.046 85.1704 327.641 51.2482 430 81.7573Z" fill="url(#paint18_linear_18_139)"/>
<path d="M430 64.0406L424.07 63.0332L421.105 62.5295L418.132 62.0692L415.158 61.6089L413.676 61.3831L412.934 61.2702L412.193 61.166L406.229 60.3497C398.274 59.3335 390.292 58.4738 382.294 57.918C374.296 57.3795 366.28 57.119 358.264 57.2058C350.249 57.2927 342.242 57.7529 334.278 58.6301C326.314 59.5072 318.393 60.8099 310.567 62.5295C302.741 64.2578 295.01 66.3942 287.365 68.8259L285.934 69.2775L284.503 69.7464L281.65 70.6931C281.176 70.8494 280.702 71.0144 280.228 71.1794L278.806 71.6744C277.858 72.0045 276.91 72.3258 275.962 72.6558C272.178 74.0019 268.412 75.3741 264.654 76.7897C257.138 79.6122 249.657 82.5303 242.15 85.4049L241.917 85.4917L241.839 85.2572L242.141 85.4049C238.444 86.7249 234.755 88.0798 231.074 89.478C227.403 90.8762 223.74 92.3005 220.094 93.7682C216.448 95.2359 212.819 96.7384 209.199 98.2842C205.588 99.8301 201.977 101.402 198.391 103.009C201.96 101.35 205.536 99.7172 209.139 98.1366C212.742 96.556 216.353 95.0101 219.99 93.5077C223.619 92.0052 227.273 90.5288 230.936 89.1132C234.6 87.6889 238.28 86.2994 241.977 84.9533L242.201 84.8664L242.279 85.1009L241.969 84.9533C249.45 82.0439 256.914 79.0738 264.43 76.2252C271.937 73.3766 279.496 70.6236 287.158 68.1832C294.812 65.7428 302.569 63.5803 310.421 61.8434C318.272 60.1325 326.219 58.8298 334.209 57.9614C342.199 57.0929 350.232 56.6674 358.264 56.6066C366.297 56.5458 374.33 56.8584 382.337 57.4403L388.336 57.9527C389.336 58.0309 390.336 58.1438 391.335 58.248L394.326 58.5693C395.326 58.6822 396.326 58.7777 397.317 58.8993L400.308 59.2814L403.29 59.6636L404.781 59.8546L406.272 60.0717L412.228 60.9489L412.969 61.0618L413.71 61.1834L415.193 61.4266L418.166 61.9216L421.14 62.4166C422.131 62.5903 423.113 62.7814 424.105 62.955L430.026 64.0493L430 64.0406Z" fill="url(#paint19_linear_18_139)"/>
<path style="mix-blend-mode:color-dodge" d="M430 64.0406L424.07 63.0332L421.105 62.5295L418.132 62.0692L415.158 61.6089L413.676 61.3831L412.934 61.2702L412.193 61.166L406.229 60.3497C398.274 59.3335 390.292 58.4738 382.294 57.918C374.296 57.3795 366.28 57.119 358.264 57.2058C350.249 57.2927 342.242 57.7529 334.278 58.6301C326.314 59.5072 318.393 60.8099 310.567 62.5295C302.741 64.2578 295.01 66.3942 287.365 68.8259L285.934 69.2775L284.503 69.7464L281.65 70.6931C281.176 70.8494 280.702 71.0144 280.228 71.1794L278.806 71.6744C277.858 72.0045 276.91 72.3258 275.962 72.6558C272.178 74.0019 268.412 75.3741 264.654 76.7897C257.138 79.6122 249.657 82.5303 242.15 85.4049L241.917 85.4917L241.839 85.2572L242.141 85.4049C238.444 86.7249 234.755 88.0798 231.074 89.478C227.403 90.8762 223.74 92.3005 220.094 93.7682C216.448 95.2359 212.819 96.7384 209.199 98.2842C205.588 99.8301 201.977 101.402 198.391 103.009C201.96 101.35 205.536 99.7172 209.139 98.1366C212.742 96.556 216.353 95.0101 219.99 93.5077C223.619 92.0052 227.273 90.5288 230.936 89.1132C234.6 87.6889 238.28 86.2994 241.977 84.9533L242.201 84.8664L242.279 85.1009L241.969 84.9533C249.45 82.0439 256.914 79.0738 264.43 76.2252C271.937 73.3766 279.496 70.6236 287.158 68.1832C294.812 65.7428 302.569 63.5803 310.421 61.8434C318.272 60.1325 326.219 58.8298 334.209 57.9614C342.199 57.0929 350.232 56.6674 358.264 56.6066C366.297 56.5458 374.33 56.8584 382.337 57.4403L388.336 57.9527C389.336 58.0309 390.336 58.1438 391.335 58.248L394.326 58.5693C395.326 58.6822 396.326 58.7777 397.317 58.8993L400.308 59.2814L403.29 59.6636L404.781 59.8546L406.272 60.0717L412.228 60.9489L412.969 61.0618L413.71 61.1834L415.193 61.4266L418.166 61.9216L421.14 62.4166C422.131 62.5903 423.113 62.7814 424.105 62.955L430.026 64.0493L430 64.0406Z" fill="url(#paint20_linear_18_139)"/>
<path d="M242.038 85.1704C243.891 84.4496 245.778 83.8069 247.666 83.1729C249.553 82.5476 251.458 81.9484 253.363 81.3752C255.268 80.802 257.181 80.2549 259.103 79.7338C261.025 79.204 262.947 78.709 264.878 78.2227C272.601 76.2947 280.401 74.6793 288.244 73.3593C303.939 70.7191 319.832 69.2341 335.743 68.9127C351.654 68.5914 367.599 69.4512 383.389 71.5181L386.345 71.9263L387.827 72.1347C388.319 72.2042 388.81 72.2824 389.301 72.3605L392.249 72.8208C393.232 72.9771 394.214 73.1508 395.197 73.3158C397.162 73.6372 399.118 74.0193 401.075 74.3754L401.807 74.5143L402.54 74.662L404.005 74.9572L405.47 75.2525C405.962 75.3481 406.444 75.4436 406.936 75.5565C414.727 77.2153 422.355 79.1433 430 81.3926V82.1395C422.381 79.8641 414.581 77.8406 406.806 76.1557C406.324 76.0428 405.832 75.9473 405.35 75.8431L403.893 75.5391L402.437 75.2352L401.704 75.0875L400.971 74.9486C399.015 74.5838 397.067 74.193 395.11 73.8717C394.128 73.7067 393.154 73.5243 392.171 73.368L389.224 72.899C388.732 72.8208 388.241 72.7427 387.75 72.6732L386.276 72.4648L383.328 72.0479C367.573 69.9288 351.654 69.0083 335.76 69.2688C319.858 69.5293 303.982 70.9536 288.278 73.533C280.427 74.827 272.626 76.4163 264.904 78.3095C262.973 78.7872 261.043 79.2822 259.129 79.8033C257.207 80.3244 255.294 80.8628 253.389 81.4273C251.484 81.9918 249.579 82.5824 247.692 83.199C245.804 83.8243 243.917 84.4583 242.055 85.1704H242.038Z" fill="url(#paint21_linear_18_139)"/>
<path d="M239.349 82.3566C225.334 88.7137 212.923 94.9406 197.443 103H174.051C195.53 100.23 239.349 82.3566 239.349 82.3566Z" fill="url(#paint22_linear_18_139)"/>
<path d="M145.488 69.3383C77.6569 87.0115 43.8274 94.4282 0 93.8203V103.009H16.7294C56.6266 96.9815 100.118 85.1791 145.488 69.3469V69.3383Z" fill="url(#paint23_linear_18_139)"/>
<path style="mix-blend-mode:color-dodge" d="M145.488 69.3383C77.6569 87.0115 43.8274 94.4282 0 93.8203V103.009H16.7294C56.6266 96.9815 100.118 85.1791 145.488 69.3469V69.3383Z" fill="url(#paint24_linear_18_139)"/>
<path d="M14.2816 103C14.3678 102.991 16.8414 102.627 16.9276 102.618C27.8134 100.985 38.6474 98.9877 49.4211 96.6949C60.281 94.3848 71.072 91.7707 81.8026 88.9222C103.264 83.225 124.484 76.5899 145.488 69.3383C124.527 76.7028 103.341 83.4508 81.8974 89.2609C71.1754 92.1615 60.3844 94.8364 49.5332 97.2073C39.5869 99.3785 29.0459 101.393 18.9962 103H14.2902H14.2816Z" fill="url(#paint25_linear_18_139)"/>
<path style="mix-blend-mode:screen" d="M60.3247 99.6907C80.9269 95.9443 96.8326 88.4648 95.8511 82.9847C94.8696 77.5046 77.3726 76.0991 56.7704 79.8455C36.1682 83.5919 20.2625 91.0715 21.244 96.5516C22.2255 102.032 39.7225 103.437 60.3247 99.6907Z" fill="url(#paint26_radial_18_139)"/>
<path style="mix-blend-mode:color-dodge" d="M59.6267 95.7935C72.1342 93.5191 81.7903 88.9777 81.1943 85.65C80.5983 82.3222 69.9759 81.4684 57.4684 83.7428C44.9609 86.0172 35.3048 90.5586 35.9008 93.8863C36.4968 97.2141 47.1192 98.0679 59.6267 95.7935Z" fill="url(#paint27_radial_18_139)"/>
<path style="mix-blend-mode:screen" d="M317.134 78.5787C353.184 72.2325 381.088 59.4773 379.46 50.089C377.833 40.7008 347.289 38.2347 311.239 44.5808C275.189 50.927 247.285 63.6823 248.913 73.0706C250.54 82.4588 281.084 84.9249 317.134 78.5787Z" fill="url(#paint28_radial_18_139)"/>
<path style="mix-blend-mode:color-dodge" d="M315.975 71.8972C337.859 68.0448 354.799 60.3025 353.811 54.6043C352.823 48.9062 334.282 47.4099 312.398 51.2624C290.514 55.1148 273.574 62.8571 274.562 68.5553C275.55 74.2534 294.091 75.7497 315.975 71.8972Z" fill="url(#paint29_radial_18_139)"/>
<path style="mix-blend-mode:screen" d="M286.49 65.3044C327.851 52.7136 357.691 30.1977 353.138 15.0138C348.586 -0.170154 311.365 -2.27225 270.004 10.3186C228.643 22.9094 198.803 45.4253 203.356 60.6092C207.908 75.7931 245.129 77.8952 286.49 65.3044Z" fill="url(#paint30_radial_18_139)"/>
<path style="mix-blend-mode:screen" d="M283.25 54.4968C308.357 46.8538 326.471 33.1876 323.708 23.9726C320.945 14.7576 298.352 13.4832 273.244 21.1262C248.137 28.7692 230.023 42.4353 232.786 51.6504C235.549 60.8654 258.142 62.1398 283.25 54.4968Z" fill="url(#paint31_radial_18_139)"/>
<path style="mix-blend-mode:screen" d="M430 28.312C401.609 22.2067 377.631 23.7004 375.752 31.9074C373.804 40.4184 396.343 52.9156 426.087 59.8199C427.397 60.1239 428.707 60.4105 430 60.6884V28.312Z" fill="url(#paint32_radial_18_139)"/>
<path style="mix-blend-mode:color-dodge" d="M430 34.6691C412.702 30.926 398.067 31.8206 396.92 36.8142C395.74 41.9816 409.418 49.5633 427.475 53.758C428.319 53.9577 429.164 54.1401 430 54.3138V34.6604V34.6691Z" fill="url(#paint33_radial_18_139)"/>
<path style="mix-blend-mode:screen" d="M430 62.5208C395.326 55.0607 366.056 56.8845 363.763 66.9066C361.384 77.2934 388.905 92.5524 425.225 100.994C426.828 101.367 428.423 101.715 430 102.053V62.5208Z" fill="url(#paint34_radial_18_139)"/>
<path style="mix-blend-mode:color-dodge" d="M430 70.2936C408.875 65.7168 390.999 66.8197 389.603 72.9163C388.164 79.2214 404.867 88.4879 426.914 93.6032C427.949 93.8464 428.983 94.0722 430 94.2893V70.2936Z" fill="url(#paint35_radial_18_139)"/>
<path style="mix-blend-mode:screen" d="M197.99 57.8431C211.327 53.7498 221.589 48.6126 220.911 46.3689C220.233 44.1253 208.871 45.6247 195.534 49.7181C182.196 53.8114 171.934 58.9486 172.612 61.1923C173.29 63.436 184.652 61.9365 197.99 57.8431Z" fill="url(#paint36_radial_18_139)"/>
<path style="mix-blend-mode:color-dodge" d="M197.507 56.248C205.604 53.7632 211.833 50.6442 211.421 49.2814C211.009 47.9187 204.112 48.8283 196.016 51.3131C187.919 53.798 181.69 56.917 182.102 58.2797C182.514 59.6424 189.411 58.7328 197.507 56.248Z" fill="url(#paint37_radial_18_139)"/>
<defs>
<radialGradient id="paint0_radial_18_139" cx="0" cy="0" r="1" gradientUnits="userSpaceOnUse" gradientTransform="translate(247.312 -80.3157) scale(399.894 402.942)">
<stop stop-color="#253C5C"/>
<stop offset="1" stop-color="#000002"/>
</radialGradient>
<radialGradient id="paint1_radial_18_139" cx="0" cy="0" r="1" gradientUnits="userSpaceOnUse" gradientTransform="translate(234.531 -1.8759) scale(316.35 318.762)">
<stop stop-color="#3F5B87"/>
<stop offset="1" stop-color="#000002"/>
</radialGradient>
<radialGradient id="paint2_radial_18_139" cx="0" cy="0" r="1" gradientUnits="userSpaceOnUse" gradientTransform="translate(247.312 -80.3157) scale(399.894 402.942)">
<stop stop-color="#253C5C"/>
<stop offset="1" stop-color="#000002"/>
</radialGradient>
<radialGradient id="paint3_radial_18_139" cx="0" cy="0" r="1" gradientUnits="userSpaceOnUse" gradientTransform="translate(234.531 -1.87588) scale(316.35 318.762)">
<stop stop-color="#3F5B87"/>
<stop offset="1" stop-color="#000002"/>
</radialGradient>
<linearGradient id="paint4_linear_18_139" x1="241.314" y1="16.5877" x2="174.262" y2="169.308" gradientUnits="userSpaceOnUse">
<stop stop-color="#C69D6E"/>
<stop offset="0.16" stop-color="#A8825A"/>
<stop offset="0.42" stop-color="#7C593C"/>
<stop offset="0.66" stop-color="#5B3B26"/>
<stop offset="0.86" stop-color="#482918"/>
<stop offset="1" stop-color="#412314"/>
</linearGradient>
<linearGradient id="paint5_linear_18_139" x1="188.333" y1="97.5287" x2="259.13" y2="38.5682" gradientUnits="userSpaceOnUse">
<stop offset="0.18" stop-color="#000002"/>
<stop offset="0.38" stop-color="#868586"/>
<stop offset="0.95" stop-color="#000002"/>
</linearGradient>
<linearGradient id="paint6_linear_18_139" x1="231.152" y1="52.933" x2="285.428" y2="-23.2685" gradientUnits="userSpaceOnUse">
<stop offset="0.18" stop-color="#000002"/>
<stop offset="0.38" stop-color="#868586"/>
<stop offset="0.95" stop-color="#000002"/>
</linearGradient>
<linearGradient id="paint7_linear_18_139" x1="305.422" y1="-6.27032" x2="284.098" y2="61.5516" gradientUnits="userSpaceOnUse">
<stop stop-color="#C69D6E"/>
<stop offset="0.05" stop-color="#BD9467"/>
<stop offset="0.37" stop-color="#886444"/>
<stop offset="0.64" stop-color="#614029"/>
<stop offset="0.86" stop-color="#492A19"/>
<stop offset="1" stop-color="#412314"/>
</linearGradient>
<linearGradient id="paint8_linear_18_139" x1="306.964" y1="65.821" x2="484.741" y2="70.8934" gradientUnits="userSpaceOnUse">
<stop offset="0.18" stop-color="#000002"/>
<stop offset="0.38" stop-color="#868586"/>
<stop offset="0.95" stop-color="#000002"/>
</linearGradient>
<linearGradient id="paint9_linear_18_139" x1="276.789" y1="68.3135" x2="204.68" y2="25.382" gradientUnits="userSpaceOnUse">
<stop offset="0.18" stop-color="#000002"/>
<stop offset="0.38" stop-color="#868586"/>
<stop offset="0.95" stop-color="#000002"/>
</linearGradient>
<linearGradient id="paint10_linear_18_139" x1="263.921" y1="-3.86468" x2="231.069" y2="93.0182" gradientUnits="userSpaceOnUse">
<stop offset="0.15" stop-color="#FBD4A6"/>
<stop offset="0.22" stop-color="#F4CC9E"/>
<stop offset="0.32" stop-color="#E1B98A"/>
<stop offset="0.42" stop-color="#C69D6E"/>
<stop offset="1" stop-color="#412314"/>
</linearGradient>
<linearGradient id="paint11_linear_18_139" x1="356.015" y1="17.8035" x2="145.057" y2="89.7698" gradientUnits="userSpaceOnUse">
<stop offset="0.18" stop-color="#000002"/>
<stop offset="0.38" stop-color="#868586"/>
<stop offset="0.95" stop-color="#000002"/>
</linearGradient>
<linearGradient id="paint12_linear_18_139" x1="358.669" y1="175.578" x2="326.427" y2="27.701" gradientUnits="userSpaceOnUse">
<stop stop-color="#C69D6E"/>
<stop offset="1" stop-color="#412314"/>
</linearGradient>
<linearGradient id="paint13_linear_18_139" x1="351.498" y1="17.2477" x2="316.754" y2="81.6159" gradientUnits="userSpaceOnUse">
<stop offset="0.15" stop-color="#FBD4A6"/>
<stop offset="0.22" stop-color="#F4CC9E"/>
<stop offset="0.32" stop-color="#E1B98A"/>
<stop offset="0.42" stop-color="#C69D6E"/>
<stop offset="1" stop-color="#412314"/>
</linearGradient>
<linearGradient id="paint14_linear_18_139" x1="462.614" y1="73.7414" x2="348.101" y2="55.2752" gradientUnits="userSpaceOnUse">
<stop offset="0.18" stop-color="#000002"/>
<stop offset="0.38" stop-color="#868586"/>
<stop offset="0.95" stop-color="#000002"/>
</linearGradient>
<linearGradient id="paint15_linear_18_139" x1="344.224" y1="158.686" x2="302.824" y2="66.7934" gradientUnits="userSpaceOnUse">
<stop stop-color="#C69D6E"/>
<stop offset="0.8" stop-color="#412314"/>
</linearGradient>
<linearGradient id="paint16_linear_18_139" x1="325.047" y1="55.5731" x2="308.248" y2="112.71" gradientUnits="userSpaceOnUse">
<stop offset="0.18" stop-color="#000002"/>
<stop offset="0.38" stop-color="#868586"/>
<stop offset="0.95" stop-color="#000002"/>
</linearGradient>
<linearGradient id="paint17_linear_18_139" x1="362.617" y1="37.153" x2="318.028" y2="113.623" gradientUnits="userSpaceOnUse">
<stop stop-color="#C69D6E"/>
<stop offset="1" stop-color="#412314"/>
</linearGradient>
<linearGradient id="paint18_linear_18_139" x1="437.705" y1="129.436" x2="365.642" y2="91.1665" gradientUnits="userSpaceOnUse">
<stop offset="0.18" stop-color="#000002"/>
<stop offset="0.38" stop-color="#868586"/>
<stop offset="0.95" stop-color="#000002"/>
</linearGradient>
<linearGradient id="paint19_linear_18_139" x1="319.979" y1="43.1975" x2="310.881" y2="105.586" gradientUnits="userSpaceOnUse">
<stop stop-color="#FBD4A6"/>
<stop offset="0.35" stop-color="#B5926F"/>
<stop offset="0.8" stop-color="#62422E"/>
<stop offset="1" stop-color="#412314"/>
</linearGradient>
<linearGradient id="paint20_linear_18_139" x1="375.218" y1="61.2094" x2="245.438" y2="98.4531" gradientUnits="userSpaceOnUse">
<stop offset="0.18" stop-color="#000002"/>
<stop offset="0.38" stop-color="#868586"/>
<stop offset="0.95" stop-color="#000002"/>
</linearGradient>
<linearGradient id="paint21_linear_18_139" x1="412.288" y1="121.047" x2="318.783" y2="75.4412" gradientUnits="userSpaceOnUse">
<stop stop-color="#FBD4A6"/>
<stop offset="0.35" stop-color="#B5926F"/>
<stop offset="0.8" stop-color="#62422E"/>
<stop offset="1" stop-color="#412314"/>
</linearGradient>
<linearGradient id="paint22_linear_18_139" x1="196.28" y1="82.4434" x2="219.002" y2="104.443" gradientUnits="userSpaceOnUse">
<stop stop-color="#C69D6E"/>
<stop offset="1" stop-color="#412314"/>
</linearGradient>
<linearGradient id="paint23_linear_18_139" x1="72.0287" y1="74.1148" x2="79.519" y2="198.924" gradientUnits="userSpaceOnUse">
<stop stop-color="#C69D6E"/>
<stop offset="0.71" stop-color="#412314"/>
</linearGradient>
<linearGradient id="paint24_linear_18_139" x1="35.5532" y1="69.8507" x2="104.291" y2="99.5522" gradientUnits="userSpaceOnUse">
<stop offset="0.18" stop-color="#000002"/>
<stop offset="0.38" stop-color="#868586"/>
<stop offset="0.95" stop-color="#000002"/>
</linearGradient>
<linearGradient id="paint25_linear_18_139" x1="85.5777" y1="89.8862" x2="137.186" y2="123.103" gradientUnits="userSpaceOnUse">
<stop stop-color="#C69D6E"/>
<stop offset="1" stop-color="#412314"/>
</linearGradient>
<radialGradient id="paint26_radial_18_139" cx="0" cy="0" r="1" gradientUnits="userSpaceOnUse" gradientTransform="translate(63.6003 124.417) rotate(169.694) scale(38.0526 9.92321)">
<stop stop-color="#5E351D"/>
<stop offset="0.42" stop-color="#341A0E"/>
<stop offset="0.79" stop-color="#160703"/>
<stop offset="1" stop-color="#0B0000"/>
</radialGradient>
<radialGradient id="paint27_radial_18_139" cx="0" cy="0" r="1" gradientUnits="userSpaceOnUse" gradientTransform="translate(63.6003 124.417) rotate(169.694) scale(23.1058 6.02544)">
<stop stop-color="#626262"/>
<stop offset="0.16" stop-color="#4F4D4D"/>
<stop offset="0.53" stop-color="#2A2323"/>
<stop offset="0.83" stop-color="#130909"/>
<stop offset="1" stop-color="#0B0000"/>
</radialGradient>
<radialGradient id="paint28_radial_18_139" cx="0" cy="0" r="1" gradientUnits="userSpaceOnUse" gradientTransform="translate(315.949 70.5706) rotate(170.016) scale(66.2513 17.1092)">
<stop stop-color="#5E351D"/>
<stop offset="0.42" stop-color="#341A0E"/>
<stop offset="0.79" stop-color="#160703"/>
<stop offset="1" stop-color="#0B0000"/>
</radialGradient>
<radialGradient id="paint29_radial_18_139" cx="0" cy="0" r="1" gradientUnits="userSpaceOnUse" gradientTransform="translate(315.949 70.5706) rotate(170.016) scale(40.2114 10.3845)">
<stop stop-color="#626262"/>
<stop offset="0.16" stop-color="#4F4D4D"/>
<stop offset="0.53" stop-color="#2A2323"/>
<stop offset="0.83" stop-color="#130909"/>
<stop offset="1" stop-color="#0B0000"/>
</radialGradient>
<radialGradient id="paint30_radial_18_139" cx="0" cy="0" r="1" gradientUnits="userSpaceOnUse" gradientTransform="translate(278.278 35.7732) rotate(163.069) scale(78.1748 28.7316)">
<stop stop-color="#5E351D"/>
<stop offset="0.42" stop-color="#341A0E"/>
<stop offset="0.79" stop-color="#160703"/>
<stop offset="1" stop-color="#0B0000"/>
</radialGradient>
<radialGradient id="paint31_radial_18_139" cx="0" cy="0" r="1" gradientUnits="userSpaceOnUse" gradientTransform="translate(278.278 35.7732) rotate(163.069) scale(47.4484 17.4387)">
<stop stop-color="#0B0000"/>
<stop offset="1" stop-color="#0B0000"/>
</radialGradient>
<radialGradient id="paint32_radial_18_139" cx="0" cy="0" r="1" gradientUnits="userSpaceOnUse" gradientTransform="translate(429.423 45.2291) rotate(-166.924) scale(55.3741 15.734)">
<stop stop-color="#5E351D"/>
<stop offset="0.42" stop-color="#341A0E"/>
<stop offset="0.79" stop-color="#160703"/>
<stop offset="1" stop-color="#0B0000"/>
</radialGradient>
<radialGradient id="paint33_radial_18_139" cx="0" cy="0" r="1" gradientUnits="userSpaceOnUse" gradientTransform="translate(429.424 45.2252) rotate(-166.924) scale(33.618 9.55221)">
<stop stop-color="#3D3D3C"/>
<stop offset="0.34" stop-color="#272322"/>
<stop offset="0.75" stop-color="#120909"/>
<stop offset="1" stop-color="#0B0000"/>
</radialGradient>
<radialGradient id="paint34_radial_18_139" cx="0" cy="0" r="1" gradientUnits="userSpaceOnUse" gradientTransform="translate(429.391 82.8691) rotate(-166.924) scale(67.6154 19.2122)">
<stop stop-color="#5E351D"/>
<stop offset="0.42" stop-color="#341A0E"/>
<stop offset="0.79" stop-color="#160703"/>
<stop offset="1" stop-color="#0B0000"/>
</radialGradient>
<radialGradient id="paint35_radial_18_139" cx="0" cy="0" r="1" gradientUnits="userSpaceOnUse" gradientTransform="translate(429.393 82.8613) rotate(-166.924) scale(41.0386 11.6607)">
<stop stop-color="#3D3D3C"/>
<stop offset="0.34" stop-color="#272322"/>
<stop offset="0.75" stop-color="#120909"/>
<stop offset="1" stop-color="#0B0000"/>
</radialGradient>
<radialGradient id="paint36_radial_18_139" cx="0" cy="0" r="1" gradientUnits="userSpaceOnUse" gradientTransform="translate(209.794 100.681) rotate(162.938) scale(25.1585 4.10552)">
<stop stop-color="#5E351D"/>
<stop offset="0.42" stop-color="#341A0E"/>
<stop offset="0.79" stop-color="#160703"/>
<stop offset="1" stop-color="#0B0000"/>
</radialGradient>
<radialGradient id="paint37_radial_18_139" cx="0" cy="0" r="1" gradientUnits="userSpaceOnUse" gradientTransform="translate(209.794 100.681) rotate(162.938) scale(15.2725 2.49227)">
<stop stop-color="#3D3D3C"/>
<stop offset="0.34" stop-color="#272322"/>
<stop offset="0.75" stop-color="#120909"/>
<stop offset="1" stop-color="#0B0000"/>
</radialGradient>
</defs>
</svg>
