<svg width="260" height="290" viewBox="0 0 260 290" fill="none" xmlns="http://www.w3.org/2000/svg">
<path d="M14.0077 5.29468V17.1845C14.0077 18.6011 14.0774 19.9247 14.3099 21.1555C14.4959 22.456 14.8446 23.6403 15.3793 24.7782C15.8675 25.9161 16.5649 27.0308 17.4716 28.0061C18.355 29.0743 19.4941 30.0264 20.8657 30.9321L17.9365 34.8567C17.3554 34.5548 16.7974 34.1368 16.193 33.6491C15.5885 33.115 14.9841 32.5344 14.4029 31.9074C13.7985 31.234 13.2173 30.4909 12.6826 29.7478C12.1014 28.9814 11.6132 28.1454 11.2412 27.3094C10.8228 28.2151 10.3346 29.0511 9.79987 29.8639C9.21868 30.6534 8.66074 31.4198 8.0563 32.1164C7.40537 32.8131 6.75443 33.4169 6.1035 33.9742C5.42932 34.5083 4.73189 34.9728 4.12745 35.3443L0.849533 31.5359C2.22114 30.6302 3.40677 29.6781 4.40642 28.6331C5.31308 27.6113 6.08025 26.4966 6.66144 25.2891C7.19614 24.1047 7.61459 22.8507 7.87032 21.4806C8.10279 20.1802 8.21903 18.7636 8.21903 17.3006V5.29468H1.98867V0.487668H20.1451V5.29468H14.0077ZM22.0514 0.30189H27.7238V35.1121H22.0514V18.3456H17.6576V13.585H22.0514V0.30189ZM35.0468 0V35.6462H29.3279V0H35.0468Z" fill="white"/>
<path d="M36.9763 26.1019C36.9763 24.128 37.4413 22.456 38.3945 21.0394C39.3011 19.6693 40.8355 18.4385 42.9045 17.3471C41.9048 16.8129 41.1609 16.2324 40.5332 15.6286C39.9288 15.0481 39.4173 14.4443 39.0919 13.794C38.7199 13.1903 38.4874 12.5633 38.3712 11.9363C38.2085 11.3325 38.1852 10.6823 38.1852 10.0785C38.1852 8.6387 38.4409 7.33825 38.9756 6.20036C39.4638 5.08569 40.1845 4.13357 41.1609 3.34401C42.0676 2.57768 43.23 2.02034 44.5086 1.5559C45.8104 1.18434 47.2053 0.952118 48.7861 0.952118C50.5297 0.952118 52.0641 1.18434 53.3892 1.64879C54.691 2.13645 55.7604 2.78668 56.6671 3.55301C57.504 4.34257 58.2014 5.27146 58.6431 6.29325C59.0616 7.36147 59.2941 8.45292 59.2941 9.61403C59.2941 10.2178 59.2243 10.8448 59.1081 11.4486C58.9454 12.0988 58.7361 12.749 58.4107 13.3993C58.0387 14.0727 57.5738 14.7229 56.9926 15.3499C56.3881 16.0002 55.5745 16.6039 54.6678 17.1381C55.6674 17.6722 56.5276 18.1598 57.2948 18.694C57.9922 19.2745 58.5966 19.8783 59.0383 20.5285C59.5033 21.202 59.8288 21.9451 60.0612 22.7346C60.2472 23.5706 60.3635 24.4763 60.3635 25.4749C60.3635 27.0075 60.0612 28.3776 59.4568 29.5852C58.8524 30.7928 58.0155 31.8378 56.9693 32.697C55.8999 33.533 54.6445 34.2297 53.2264 34.6709C51.7851 35.1353 50.2043 35.3443 48.6234 35.3443C46.7868 35.3443 45.1828 35.0657 43.7879 34.6244C42.3466 34.1368 41.0912 33.4865 40.0915 32.6738C39.0686 31.8378 38.3015 30.8392 37.7668 29.7478C37.2321 28.6563 36.9763 27.4255 36.9763 26.1251V26.1019ZM54.6213 25.8696C54.6213 24.9872 54.4586 24.2209 54.2028 23.5474C53.9006 22.8972 53.4822 22.3166 52.9475 21.8057C52.4128 21.3413 51.7618 20.9001 50.9947 20.5053C50.2275 20.1105 49.3441 19.7854 48.4374 19.4371C46.5311 20.1105 45.0898 20.9233 44.1599 21.8754C43.1602 22.874 42.7185 24.0815 42.7185 25.5213C42.7185 26.3573 42.8812 27.1236 43.1835 27.7274C43.4857 28.3776 43.9041 28.9118 44.4388 29.2833C44.9735 29.7013 45.578 30.0497 46.3451 30.2819C47.0193 30.4677 47.833 30.5838 48.7164 30.5838C49.4836 30.5838 50.2507 30.4677 50.9947 30.2819C51.6921 30.0497 52.3198 29.7478 52.8545 29.3762C53.3892 29.0046 53.8076 28.4938 54.1564 27.89C54.4586 27.3094 54.6213 26.636 54.6213 25.8696ZM43.9041 9.91592C43.9041 11.2164 44.2761 12.1917 45.113 12.958C45.8802 13.7244 47.1356 14.4443 48.8791 15.0481C50.3205 14.4675 51.4364 13.7244 52.2733 12.7955C53.0637 11.913 53.4822 11.0074 53.4822 10.0088C53.4822 9.4747 53.3659 8.89414 53.2264 8.36003C53.0405 7.82592 52.7615 7.36147 52.3895 6.94347C51.9711 6.57191 51.4829 6.22358 50.9017 5.94491C50.2972 5.71269 49.5766 5.59658 48.7164 5.59658C47.8562 5.59658 47.1821 5.71269 46.6241 5.94491C46.0197 6.22358 45.485 6.52547 45.0898 6.89703C44.6713 7.31503 44.3691 7.77947 44.1831 8.26714C43.9506 8.80125 43.8809 9.33537 43.8809 9.86948L43.9041 9.91592Z" fill="white"/>
<path d="M82.4255 20.4124C82.4255 22.2702 81.8908 23.7564 80.8214 24.9175C79.752 26.1019 78.2642 26.8914 76.3579 27.2862V29.8871C78.0317 29.8174 79.6823 29.7013 81.2863 29.6084C82.8904 29.4923 84.4248 29.3762 85.8661 29.2369L86.6333 33.8581C84.727 34.0207 82.7045 34.2064 80.5657 34.3458L74.0796 34.6941C71.8711 34.7638 69.6858 34.8102 67.5702 34.8799C65.4315 34.9263 63.4089 34.9496 61.5026 34.9496L60.7819 30.2586C62.1535 30.2122 63.6414 30.2122 65.3152 30.2122L70.4297 30.0961V27.2862C68.5234 26.9146 67.0356 26.1483 65.9662 25.0104C64.8503 23.8725 64.3156 22.3398 64.3156 20.4356C64.3156 18.1598 65.106 16.3717 66.7101 15.1409C68.3142 13.9102 70.5227 13.3064 73.3822 13.3064C76.2416 13.3064 78.3339 13.9102 79.9845 15.1409C81.5886 16.3485 82.4255 18.1598 82.4255 20.4356V20.4124ZM62.1071 11.6808V6.8738H84.1458V11.6808H62.1071ZM66.4079 4.8999V0.116111H80.031V4.92313H66.4079V4.8999ZM70.1507 20.4124C70.1507 20.8768 70.2205 21.2484 70.4065 21.5503C70.5692 21.8986 70.8249 22.1541 71.1271 22.3166C71.4294 22.5488 71.7781 22.665 72.15 22.7346C72.522 22.8043 72.9172 22.8507 73.3589 22.8507C73.7309 22.8507 74.1261 22.8043 74.498 22.7346C74.87 22.665 75.2187 22.5488 75.5209 22.3166C75.8232 22.1541 76.0556 21.8986 76.2881 21.5967C76.4508 21.2948 76.5438 20.9233 76.5438 20.4588C76.5438 19.9944 76.4276 19.5764 76.2881 19.2513C76.0556 18.9494 75.8232 18.7172 75.5209 18.4849C75.2187 18.3224 74.87 18.1831 74.498 18.1134C74.1261 18.0437 73.7309 17.9973 73.3589 17.9973C72.894 17.9973 72.522 18.0437 72.15 18.1134C71.7781 18.1831 71.4294 18.3456 71.1271 18.4849C70.8249 18.7172 70.5459 18.9494 70.4065 19.2513C70.2205 19.5996 70.1507 19.9712 70.1507 20.4356V20.4124ZM87.8189 0H93.7238V35.623H87.8189V0Z" fill="white"/>
<path d="M5.12711 59.8439H35.1863V68.5522H15.9373V113.743H36.5812V122.405H5.12711V59.8439ZM53.0637 58.9382H63.4554V123.636H53.0637V92.2854H49.4603V122.73H39.1384V59.4723H49.4603V83.6235H53.0637V58.915V58.9382Z" fill="white"/>
<path d="M67.454 78.8862V70.2939H105.766V78.8862H67.454ZM70.1507 91.4726C70.1507 90.0793 70.4297 88.7092 70.9877 87.4552C71.4759 86.2012 72.3825 85.1794 73.6844 84.2041C74.9397 83.2984 76.6601 82.5553 78.7524 81.9979C80.8214 81.5103 83.4019 81.2316 86.5868 81.2316C89.7717 81.2316 92.329 81.5103 94.491 81.9979C96.56 82.5553 98.2339 83.3216 99.559 84.2041C100.814 85.1794 101.698 86.2012 102.256 87.4552C102.744 88.7092 103.023 90.0793 103.023 91.4726C103.023 92.9356 102.744 94.2361 102.256 95.4901C101.698 96.7441 100.791 97.8355 99.559 98.7412C98.2339 99.7165 96.5833 100.413 94.491 100.878C92.3522 101.435 89.702 101.714 86.5868 101.714C83.4716 101.714 80.8446 101.435 78.7524 100.878C76.6833 100.39 74.9397 99.6933 73.6844 98.7412C72.3593 97.8355 71.4759 96.7441 70.9877 95.4901C70.4297 94.2361 70.1507 92.9356 70.1507 91.4726ZM82.4022 104.129V114.3H124.318V122.962H71.5921V104.129H82.4022ZM75.056 67.7162V59.124H98.0479V67.7162H75.056ZM92.3057 91.4494C92.3057 90.8921 91.8873 90.4044 91.1898 89.9864C90.4227 89.7077 88.9116 89.4987 86.5403 89.4987C84.1691 89.4987 82.7277 89.7077 81.9605 89.9864C81.1236 90.4044 80.7749 90.8921 80.7749 91.4494C80.7749 92.1461 81.1236 92.6337 81.9605 92.9124C82.7277 93.2607 84.2388 93.4001 86.5403 93.4001C88.8418 93.4001 90.4227 93.2607 91.1898 92.8427C91.8873 92.5641 92.3057 92.0764 92.3057 91.4494ZM132.082 86.7353H122.946V107.217H112.206V58.915H122.946V78.0734H132.082V86.7121V86.7353Z" fill="white"/>
<path d="M169.488 59.8439V94.3058H133.942V59.8439H169.488ZM147.519 100.042V114.3H192.201V122.962H136.709V100.065H147.519V100.042ZM144.683 85.7832H158.747V68.3432H144.683V85.7832ZM180.089 58.9382H190.829V107.241H180.089V58.9382Z" fill="white"/>
<path d="M254.853 98.8108V123.937H244.113V107.403H199.431V98.8108H222.004V92.2389H195.618V83.577H243.764V68.4129H200.454V59.8206H254.481V83.5538H259.2V92.2157H232.814V98.7876H254.853V98.8108Z" fill="white"/>
<path d="M8.86997 168.756L7.6146 155.125L18.2155 154.219L19.4709 168.756H26.4684L27.7238 154.219L38.3247 155.125L37.0693 168.756H43.4392V177.465H3.03481V168.756H8.84672H8.86997ZM42.7418 142.887V151.595H3.73224V142.887H42.7418ZM21.8886 206.702C19.8196 206.702 17.7971 206.493 16.007 206.144C14.1472 205.726 12.5431 205.099 11.1482 204.217C9.75338 203.242 8.66074 201.941 7.82383 200.339C6.98691 198.667 6.56845 196.6 6.56845 194.115C6.56845 191.77 6.98691 189.749 7.82383 188.101C8.66074 186.498 9.75338 185.267 11.1482 184.292C12.5431 183.386 14.1239 182.69 16.007 182.295C17.7971 181.947 19.6801 181.738 21.7492 181.738H48.205C50.1345 181.738 52.0873 181.947 53.9471 182.295C55.7372 182.713 57.411 183.41 58.8059 184.292C60.2007 185.267 61.2934 186.498 62.1303 188.101C62.9672 189.773 63.3857 191.77 63.3857 194.115C63.3857 196.6 62.9672 198.69 62.1303 200.339C61.2934 201.918 60.2007 203.242 58.8059 204.217C57.411 205.123 55.7604 205.75 53.9471 206.144C52.0873 206.493 50.1345 206.702 48.0655 206.702H21.8886ZM17.1694 193.976C17.1694 195.091 17.4483 196.043 18.1458 196.948C18.7037 197.784 19.9358 198.202 21.8189 198.202H48.1352C49.9253 198.202 51.1807 197.784 51.8781 196.948C52.436 196.043 52.7848 195.091 52.7848 193.976C52.7848 192.931 52.436 192.048 51.8083 191.282C51.1109 190.585 49.8788 190.237 48.1352 190.237H21.8189C20.0288 190.237 18.8432 190.585 18.2155 191.282C17.5181 192.048 17.1694 192.931 17.1694 193.976ZM61.9908 142.004V179.578H51.2504V169.267H44.6713V160.884H51.2504V157.145H44.6713V148.762H51.2504V141.981H61.9908V142.004Z" fill="white"/>
<path d="M96.56 177.488C94.491 176.513 92.329 175.073 90.1204 173.262C87.9119 171.45 85.8894 169.244 84.169 166.62C82.4952 169.244 80.5657 171.543 78.3571 173.401C76.1486 175.328 73.7774 177 71.2899 178.254L65.5477 171.055C67.4772 170.08 69.2208 168.919 70.8714 167.665C72.4057 166.481 73.7774 165.18 75.0327 163.648C76.1486 162.185 77.032 160.536 77.7294 158.724C78.3571 156.913 78.7058 154.986 78.7058 152.779V142.538H89.3068V152.64C89.3068 154.846 89.6555 156.867 90.4924 158.655C91.1898 160.466 92.143 162.115 93.3984 163.508C94.584 164.971 95.9556 166.202 97.4899 167.247C98.9545 168.362 100.396 169.174 101.93 169.871L96.6065 177.488H96.56ZM86.9355 206.702C84.8665 206.702 82.8439 206.493 81.0539 206.144C79.1941 205.726 77.59 205.099 76.1951 204.217C74.8002 203.242 73.7076 201.941 72.8707 200.339C72.0338 198.667 71.6153 196.6 71.6153 194.115C71.6153 191.77 72.0338 189.749 72.8707 188.101C73.7076 186.498 74.8002 185.267 76.1951 184.292C77.59 183.386 79.1708 182.69 81.0539 182.295C82.8439 181.947 84.727 181.738 86.796 181.738H114.089C116.018 181.738 117.971 181.947 119.831 182.295C121.621 182.713 123.295 183.41 124.69 184.292C126.085 185.267 127.177 186.498 128.014 188.101C128.851 189.773 129.269 191.77 129.269 194.115C129.269 196.6 128.851 198.69 128.014 200.339C127.177 201.918 126.085 203.242 124.69 204.217C123.295 205.123 121.644 205.75 119.831 206.144C117.971 206.493 116.018 206.702 113.949 206.702H86.9355ZM82.2162 193.976C82.2162 195.09 82.4952 196.043 83.1926 196.948C83.7506 197.784 84.9827 198.202 86.8658 198.202H114.019C115.809 198.202 117.064 197.784 117.762 196.948C118.32 196.043 118.669 195.09 118.669 193.976C118.669 192.931 118.32 192.048 117.692 191.282C116.995 190.585 115.763 190.237 114.019 190.237H86.8658C85.0757 190.237 83.8901 190.585 83.2624 191.282C82.565 192.048 82.2162 192.931 82.2162 193.976ZM117.483 142.004H127.805V179.578H117.483V163.601H113.88V178.905H103.558V142.515H113.88V154.962H117.483V142.028V142.004Z" fill="white"/>
<path d="M131.873 160.954V152.64H170.185V160.954H131.873ZM134.57 173.145C134.57 171.752 134.849 170.382 135.407 169.128C135.895 167.874 136.802 166.852 138.104 165.877C139.359 164.971 141.079 164.205 143.172 163.671C145.241 163.183 147.821 162.904 151.006 162.904C154.191 162.904 156.748 163.183 158.91 163.671C160.979 164.228 162.653 164.994 163.978 165.877C165.234 166.852 166.117 167.874 166.675 169.128C167.163 170.382 167.442 171.752 167.442 173.145C167.442 174.608 167.163 175.909 166.675 177.163C166.117 178.417 165.21 179.508 163.978 180.414C162.653 181.389 161.002 182.063 158.91 182.55C156.771 183.108 154.121 183.386 151.006 183.386C147.891 183.386 145.264 183.108 143.172 182.55C141.103 182.063 139.359 181.366 138.104 180.414C136.778 179.508 135.895 178.417 135.407 177.163C134.849 175.909 134.57 174.608 134.57 173.145ZM135.267 194.463V185.871H187.365V206.98H176.625V194.463H135.267ZM139.498 150.527V142.213H162.49V150.527H139.498ZM156.748 173.169C156.748 172.611 156.33 172.124 155.632 171.706C154.865 171.427 153.354 171.218 150.983 171.218C148.612 171.218 147.17 171.427 146.403 171.706C145.566 172.124 145.217 172.611 145.217 173.169C145.217 173.865 145.566 174.353 146.403 174.632C147.17 174.98 148.681 175.119 150.983 175.119C153.284 175.119 154.865 174.98 155.632 174.562C156.33 174.283 156.748 173.796 156.748 173.169ZM196.525 166.388H187.389V183.061H176.648V142.028H187.389V157.726H196.525V166.365V166.388Z" fill="white"/>
<path d="M259.2 170.08V178.742H195.595V170.08H259.2ZM227.398 156.449C226.142 157.981 224.631 159.351 222.818 160.536C221.028 161.79 219.005 162.881 216.797 163.717C214.588 164.693 212.147 165.366 209.66 165.923C207.103 166.55 204.476 166.968 201.686 167.247L198.222 159.421C201.686 159.003 204.94 158.376 207.846 157.563C210.752 156.797 213.24 155.822 215.332 154.66C217.401 153.546 219.005 152.245 220.191 150.643C221.307 149.11 221.935 147.392 221.935 145.395V142.422H232.884V145.395C232.884 147.392 233.442 149.134 234.628 150.643C235.744 152.245 237.394 153.546 239.486 154.66C241.556 155.845 244.066 156.797 246.972 157.563C249.878 158.399 253.063 159.026 256.597 159.421L253.133 167.247C250.366 166.968 247.67 166.55 245.159 165.923C242.602 165.366 240.23 164.669 238.022 163.717C235.813 162.881 233.791 161.79 232.001 160.536C230.211 159.351 228.676 157.981 227.421 156.449H227.398ZM210.915 181.784V185.523H244.09V181.784H254.83V206.702H200.105V181.784H210.915ZM210.915 198.179H244.09V194.022H210.915V198.179Z" fill="white"/>
<path d="M4.42968 259.765V225.93H15.1701V234.568H29.1652V225.93H39.9056V259.765H4.42968ZM6.42898 274.023V265.431H58.5269V290H47.7865V274.023H6.42898ZM15.1468 243.23V251.265H29.1419V243.23H15.1468ZM67.6632 246.621H58.5269V262.598H47.7865V225.024H58.5269V237.959H67.6632V246.621Z" fill="white"/>
<path d="M68.8489 260.531V238.934H93.5146V234.499H68.7094V225.906H104.394V247.503H79.659V252.008H107.858V260.531H68.8489ZM122.946 264.757V289.745H71.6153V264.757H122.946ZM82.4255 281.222H112.206V273.257H82.4255V281.222ZM132.106 246.621H122.969V261.924H112.229V225.047H122.969V237.982H132.106V246.644V246.621Z" fill="white"/>
<path d="M170.325 262.11C170.325 265.5 169.348 268.194 167.419 270.284C165.489 272.421 162.769 273.884 159.305 274.58V279.295C162.351 279.155 165.327 278.946 168.232 278.807C171.138 278.598 173.905 278.389 176.555 278.11L177.95 286.493C174.486 286.772 170.813 287.12 166.931 287.399L155.144 288.026C151.122 288.165 147.17 288.235 143.288 288.374C139.405 288.444 135.732 288.514 132.268 288.514L130.943 279.991C133.431 279.922 136.128 279.922 139.196 279.922L148.472 279.713V274.58C145.008 273.884 142.311 272.514 140.359 270.424C138.359 268.357 137.383 265.57 137.383 262.11C137.383 257.953 138.847 254.702 141.753 252.496C144.659 250.29 148.681 249.175 153.865 249.175C159.05 249.175 162.862 250.29 165.861 252.496C168.767 254.702 170.302 257.953 170.302 262.11H170.325ZM133.408 246.272V237.564H173.44V246.272H133.408ZM141.242 233.965V225.256H165.977V233.965H141.242ZM148.03 262.133C148.03 262.969 148.17 263.666 148.519 264.2C148.797 264.827 149.286 265.315 149.844 265.593C150.402 266.011 151.029 266.22 151.703 266.36C152.378 266.499 153.098 266.569 153.912 266.569C154.609 266.569 155.307 266.499 155.981 266.36C156.655 266.22 157.306 266.011 157.841 265.593C158.399 265.315 158.817 264.827 159.236 264.27C159.515 263.712 159.724 263.016 159.724 262.203C159.724 261.39 159.515 260.601 159.236 259.997C158.817 259.439 158.399 259.021 157.841 258.603C157.283 258.325 156.655 258.046 155.981 257.907C155.307 257.767 154.586 257.698 153.912 257.698C153.075 257.698 152.378 257.767 151.703 257.907C151.029 258.046 150.378 258.325 149.844 258.603C149.286 259.021 148.797 259.439 148.519 259.997C148.17 260.624 148.03 261.32 148.03 262.133ZM180.112 225.047H190.852V289.745H180.112V225.047Z" fill="white"/>
</svg>
