<svg width="430" height="103" viewBox="0 0 430 103" fill="none" xmlns="http://www.w3.org/2000/svg">
<path d="M430 84.9795C298.845 53.2057 142.42 125.959 0 93.0584V0H430V84.9795Z" fill="url(#paint0_radial_18_3)"/>
<path d="M430 84.9795L426.699 84.2395L425.053 83.8696L424.225 83.6803L423.812 83.5856L423.398 83.4996L420.088 82.8371L418.433 82.5016L417.606 82.3381L416.77 82.1918L413.443 81.6068L411.78 81.3142L411.366 81.2368L410.952 81.1766L410.116 81.0475L406.781 80.5313L405.108 80.2732L403.436 80.0495C394.507 78.8278 385.526 78.019 376.537 77.5372C367.538 77.0468 358.532 76.8919 349.516 76.9952C340.509 77.0984 331.503 77.4598 322.513 78.0104C304.525 79.1289 286.598 80.9959 268.705 83.1899C250.812 85.3838 232.962 87.8875 215.103 90.3482C197.245 92.8003 179.369 95.2007 161.45 97.1968C152.487 98.1862 143.514 99.081 134.533 99.821C125.544 100.561 116.546 101.146 107.539 101.533C98.532 101.912 89.5079 102.101 80.4925 102.024C71.4771 101.946 62.4616 101.619 53.4634 100.982C44.4652 100.337 35.4929 99.3908 26.5723 98.083L19.8926 97.0419L13.2387 95.8632L6.61075 94.5296L0.0172424 93.0584L6.62799 94.478L13.2646 95.7514L19.927 96.8957L26.6067 97.9023C35.5274 99.1585 44.4997 100.053 53.4893 100.638C62.4789 101.232 71.4857 101.525 80.5011 101.568C89.5079 101.602 98.5234 101.395 107.522 100.991C125.527 100.165 143.48 98.5648 161.39 96.5515C179.3 94.5469 197.167 92.1292 215.017 89.6771C232.876 87.2336 250.734 84.7213 268.627 82.5532C277.574 81.4691 286.537 80.4711 295.51 79.6021C304.482 78.7331 313.472 78.0104 322.478 77.4856C340.475 76.4273 358.549 76.152 376.554 77.2102C385.552 77.7437 394.542 78.6127 403.462 79.886L405.134 80.1183L406.806 80.385L410.142 80.9185L410.978 81.0475L411.392 81.1164L411.805 81.1938L413.469 81.4949L416.796 82.1058L417.623 82.2607L418.451 82.4327L420.105 82.7769L423.415 83.4652L423.829 83.5512L424.243 83.6459L425.061 83.8352L426.708 84.2223L430 84.9881V84.9795Z" fill="url(#paint1_radial_18_3)"/>
<path d="M430 36.5574C298.845 17.0441 142.42 104.433 0 84.8418V0H430V36.5574Z" fill="url(#paint2_radial_18_3)"/>
<path d="M430 36.5574L426.63 36.11L424.941 35.8863C424.38 35.8175 423.82 35.7315 423.251 35.6798L419.873 35.3185C418.744 35.198 417.623 35.069 416.485 34.9829L413.098 34.699L411.4 34.5614L409.702 34.4581C407.436 34.3291 405.177 34.157 402.911 34.0968C393.852 33.7182 384.785 33.7698 375.726 34.1484C366.668 34.5269 357.627 35.2325 348.62 36.1961C339.604 37.1597 330.623 38.3728 321.668 39.7752C303.758 42.5887 285.969 46.1162 268.248 49.9535C250.527 53.7908 232.867 57.9206 215.198 62.0074C197.529 66.0856 179.843 70.1208 162.071 73.7602C153.185 75.5756 144.281 77.3049 135.344 78.8794C126.414 80.4625 117.451 81.8907 108.47 83.1297C99.48 84.3686 90.4646 85.4097 81.432 86.2012C72.3907 86.9842 63.3321 87.5262 54.265 87.7499C45.1978 87.965 36.1221 87.8789 27.0635 87.4143L20.2718 86.9928L13.4887 86.4335L6.72279 85.7108L0 84.8418L6.74865 85.6592L13.5145 86.3217L20.2977 86.8465L27.0894 87.2251C36.1479 87.638 45.2151 87.6725 54.2736 87.4057C63.3321 87.139 72.382 86.5712 81.4061 85.7452C90.4301 84.9192 99.437 83.8524 108.409 82.5962C126.363 80.0667 144.195 76.7887 161.95 73.1149C179.705 69.4497 197.383 65.4145 215.052 61.3277C232.721 57.2581 250.381 53.1283 268.119 49.3082C276.988 47.4068 285.874 45.5742 294.777 43.8792C303.689 42.1757 312.627 40.6098 321.591 39.2332C339.518 36.48 357.583 34.4753 375.718 33.8042C384.785 33.4773 393.861 33.4859 402.928 33.9075C405.195 33.9849 407.453 34.1656 409.72 34.3118L411.418 34.4237L413.115 34.5786L416.503 34.8797C417.632 34.9657 418.761 35.112 419.881 35.2411L423.26 35.6282C423.82 35.6885 424.38 35.7745 424.949 35.8519L426.63 36.0842L430 36.5574Z" fill="url(#paint3_radial_18_3)"/>
<path d="M0 58.3164V66.3437C144.437 109.939 302.301 8.6726 426.656 0H301.121C212.121 31.9802 149.505 92.1378 0 58.3164Z" fill="url(#paint4_linear_18_3)"/>
<path style="mix-blend-mode:color-dodge" d="M0 58.3164V66.3437C144.437 109.939 302.301 8.6726 426.656 0H301.121C212.121 31.9802 149.505 92.1378 0 58.3164Z" fill="url(#paint5_linear_18_3)"/>
<path d="M0 46.0732V66.3437C120.872 100.036 178.981 50.0309 302.439 0H299.474C199.089 38.5965 108.383 90.202 0 46.0732Z" fill="url(#paint6_linear_18_3)"/>
<path style="mix-blend-mode:color-dodge" d="M0 46.0732V66.3437C120.872 100.036 178.981 50.0309 302.439 0H299.474C199.089 38.5965 108.383 90.202 0 46.0732Z" fill="url(#paint7_linear_18_3)"/>
<path style="mix-blend-mode:color-dodge" d="M0 46.0732V66.3437C120.872 100.036 178.981 50.0309 302.439 0H299.474C199.089 38.5965 108.383 90.202 0 46.0732Z" fill="url(#paint8_linear_18_3)"/>
<path d="M75.0281 77.3307L78.8118 77.2533L80.6993 77.1844C81.3285 77.1586 81.9577 77.15 82.5869 77.1156C85.1036 77.0038 87.6204 76.8575 90.1371 76.6596C95.162 76.2724 100.178 75.7132 105.16 74.9991L106.099 74.87L107.03 74.7238L108.901 74.4312C109.521 74.3366 110.142 74.2248 110.762 74.1215L112.624 73.8032C113.865 73.5795 115.106 73.3472 116.339 73.1149L118.192 72.7449C118.812 72.6245 119.424 72.504 120.045 72.3663C124.975 71.3339 129.879 70.1638 134.74 68.856C144.471 66.2404 154.055 63.1173 163.519 59.65C172.983 56.1912 182.326 52.4056 191.591 48.4478C200.865 44.4987 210.061 40.3861 219.249 36.2305C228.437 32.0835 237.608 27.8934 246.804 23.7636C251.407 21.6987 256 19.6338 260.62 17.6033C265.231 15.5728 269.86 13.5509 274.488 11.5635C279.125 9.576 283.771 7.61434 288.425 5.68709L291.924 4.24166C293.088 3.75985 294.26 3.28664 295.424 2.81343C297.759 1.86702 300.104 0.929208 302.439 0C300.112 0.972226 297.785 1.93585 295.458 2.91668L293.717 3.648L291.976 4.38792L288.494 5.86777C283.857 7.84664 279.237 9.85992 274.617 11.8904C265.386 15.9428 256.199 20.0898 247.028 24.2712C228.678 32.6255 210.406 41.1691 191.858 49.1017C182.575 53.0509 173.224 56.8365 163.734 60.2866C154.245 63.7195 144.635 66.8427 134.87 69.398C125.113 71.962 115.201 74.0097 105.203 75.3518C100.204 76.0229 95.1792 76.5306 90.1457 76.8661C87.629 77.0382 85.1123 77.1586 82.5869 77.2447C81.9577 77.2705 81.3285 77.2791 80.6993 77.2877L78.8118 77.3307L75.0281 77.3565V77.3307Z" fill="url(#paint9_linear_18_3)"/>
<path style="mix-blend-mode:color-dodge" d="M75.0281 77.3307L78.8118 77.2533L80.6993 77.1844C81.3285 77.1586 81.9577 77.15 82.5869 77.1156C85.1036 77.0038 87.6204 76.8575 90.1371 76.6596C95.162 76.2724 100.178 75.7132 105.16 74.9991L106.099 74.87L107.03 74.7238L108.901 74.4312C109.521 74.3366 110.142 74.2248 110.762 74.1215L112.624 73.8032C113.865 73.5795 115.106 73.3472 116.339 73.1149L118.192 72.7449C118.812 72.6245 119.424 72.504 120.045 72.3663C124.975 71.3339 129.879 70.1638 134.74 68.856C144.471 66.2404 154.055 63.1173 163.519 59.65C172.983 56.1912 182.326 52.4056 191.591 48.4478C200.865 44.4987 210.061 40.3861 219.249 36.2305C228.437 32.0835 237.608 27.8934 246.804 23.7636C251.407 21.6987 256 19.6338 260.62 17.6033C265.231 15.5728 269.86 13.5509 274.488 11.5635C279.125 9.576 283.771 7.61434 288.425 5.68709L291.924 4.24166C293.088 3.75985 294.26 3.28664 295.424 2.81343C297.759 1.86702 300.104 0.929208 302.439 0C300.112 0.972226 297.785 1.93585 295.458 2.91668L293.717 3.648L291.976 4.38792L288.494 5.86777C283.857 7.84664 279.237 9.85992 274.617 11.8904C265.386 15.9428 256.199 20.0898 247.028 24.2712C228.678 32.6255 210.406 41.1691 191.858 49.1017C182.575 53.0509 173.224 56.8365 163.734 60.2866C154.245 63.7195 144.635 66.8427 134.87 69.398C125.113 71.962 115.201 74.0097 105.203 75.3518C100.204 76.0229 95.1792 76.5306 90.1457 76.8661C87.629 77.0382 85.1123 77.1586 82.5869 77.2447C81.9577 77.2705 81.3285 77.2791 80.6993 77.2877L78.8118 77.3307L75.0281 77.3565V77.3307Z" fill="url(#paint10_linear_18_3)"/>
<path d="M0 41.9262V57.8862C70.822 75.326 133.852 64.0981 195.271 41.0658C135.007 59.1251 90.2664 72.6589 0 41.9262Z" fill="url(#paint11_linear_18_3)"/>
<path d="M0 57.5248C16.0916 61.4998 32.6055 64.1927 49.1453 65.3973C65.6851 66.6104 82.3283 66.3437 98.8423 64.7004C115.356 63.0656 131.724 60.0715 147.807 56.0192C163.898 51.9668 179.723 46.8647 195.271 41.0658C179.74 46.9164 163.941 52.0786 147.85 56.1912C131.767 60.3038 115.399 63.3582 98.8767 65.0531C82.3542 66.7567 65.6851 67.075 49.1108 65.9221C32.528 64.7692 16.1433 62.1709 0 58.2389V57.5248Z" fill="url(#paint12_linear_18_3)"/>
<path d="M0 1.76377V35.482C98.8078 62.9624 158.977 35.5422 236.849 0H231.617C177.283 24.6154 102.781 53.9629 0 1.76377Z" fill="url(#paint13_linear_18_3)"/>
<path style="mix-blend-mode:color-dodge" d="M0 1.76377V35.482C98.8078 62.9624 158.977 35.5422 236.849 0H231.617C177.283 24.6154 102.781 53.9629 0 1.76377Z" fill="url(#paint14_linear_18_3)"/>
<path style="mix-blend-mode:color-dodge" d="M0 1.76377V35.482C98.8078 62.9624 158.977 35.5422 236.849 0H231.617C177.283 24.6154 102.781 53.9629 0 1.76377Z" fill="url(#paint15_linear_18_3)"/>
<path style="mix-blend-mode:color-dodge" d="M0 1.76377V35.482C98.8078 62.9624 158.977 35.5422 236.849 0H231.617C177.283 24.6154 102.781 53.9629 0 1.76377Z" fill="url(#paint16_linear_18_3)"/>
<path d="M0 21.0448V38.5965C94.7741 56.0536 133.775 38.6654 187.954 17.6635C187.954 17.6635 102.359 51.2699 0 21.0448Z" fill="url(#paint17_linear_18_3)"/>
<path style="mix-blend-mode:color-dodge" d="M0 21.0448V38.5965C94.7741 56.0536 133.775 38.6654 187.954 17.6635C187.954 17.6635 102.359 51.2699 0 21.0448Z" fill="url(#paint18_linear_18_3)"/>
<path d="M0 38.5965L5.92985 39.5946L8.89477 40.0936L11.8683 40.5496L14.8419 41.0056L16.3243 41.2293L17.0655 41.3411L17.8068 41.4444L23.7711 42.2531C31.7264 43.2598 39.7076 44.1115 47.706 44.6622C55.7043 45.1956 63.72 45.4537 71.7356 45.3677C79.7513 45.2817 87.7583 44.8257 95.7222 43.9567C103.686 43.0877 111.607 41.7971 119.433 40.0936C127.259 38.3814 134.99 36.2649 142.635 33.8558L144.066 33.4085L145.497 32.9439L148.35 32.006C148.824 31.8512 149.298 31.6877 149.772 31.5242L151.194 31.0338C152.142 30.7069 153.09 30.3885 154.038 30.0616C157.822 28.728 161.588 27.3686 165.346 25.9662C172.862 23.17 180.343 20.2791 187.85 17.4312L188.083 17.3452L188.161 17.5775L187.859 17.4312C191.556 16.1235 195.245 14.7813 198.926 13.3961C202.597 12.0109 206.26 10.5998 209.906 9.14581C213.552 7.69177 217.181 6.20332 220.801 4.67185C224.429 3.14898 228.032 1.5917 231.617 0C228.049 1.64332 224.472 3.26083 220.87 4.82672C217.267 6.3926 213.655 7.92408 210.018 9.41253C206.39 10.901 202.735 12.3636 199.072 13.766C195.409 15.1771 191.729 16.5537 188.031 17.8872L187.807 17.9733L187.73 17.741L188.04 17.8872C180.559 20.7695 173.095 23.712 165.579 26.534C158.072 29.3561 150.513 32.0835 142.851 34.5011C135.197 36.9188 127.44 39.0611 119.588 40.7819C111.736 42.4768 103.79 43.7674 95.7998 44.6278C87.81 45.4882 79.7771 45.9097 71.7442 45.97C63.7114 46.0302 55.6785 45.7205 47.6715 45.144L41.6727 44.6364C40.6729 44.5589 39.6731 44.4471 38.6733 44.3438L35.6825 44.0255C34.6827 43.9137 33.6829 43.819 32.6917 43.6986L29.7009 43.32L26.7188 42.9414L25.2277 42.7522L23.7366 42.5371L17.7809 41.6681L17.0397 41.5562L16.2985 41.4358L14.816 41.1949L11.8425 40.7045L8.86891 40.214C7.87773 40.042 6.89517 39.8527 5.90399 39.6806L0 38.5965Z" fill="url(#paint19_linear_18_3)"/>
<path style="mix-blend-mode:color-dodge" d="M0 38.5965L5.92985 39.5946L8.89477 40.0936L11.8683 40.5496L14.8419 41.0056L16.3243 41.2293L17.0655 41.3411L17.8068 41.4444L23.7711 42.2531C31.7264 43.2598 39.7076 44.1115 47.706 44.6622C55.7043 45.1956 63.72 45.4537 71.7356 45.3677C79.7513 45.2817 87.7583 44.8257 95.7222 43.9567C103.686 43.0877 111.607 41.7971 119.433 40.0936C127.259 38.3814 134.99 36.2649 142.635 33.8558L144.066 33.4085L145.497 32.9439L148.35 32.006C148.824 31.8512 149.298 31.6877 149.772 31.5242L151.194 31.0338C152.142 30.7069 153.09 30.3885 154.038 30.0616C157.822 28.728 161.588 27.3686 165.346 25.9662C172.862 23.17 180.343 20.2791 187.85 17.4312L188.083 17.3452L188.161 17.5775L187.859 17.4312C191.556 16.1235 195.245 14.7813 198.926 13.3961C202.597 12.0109 206.26 10.5998 209.906 9.14581C213.552 7.69177 217.181 6.20332 220.801 4.67185C224.429 3.14898 228.032 1.5917 231.617 0C228.049 1.64332 224.472 3.26083 220.87 4.82672C217.267 6.3926 213.655 7.92408 210.018 9.41253C206.39 10.901 202.735 12.3636 199.072 13.766C195.409 15.1771 191.729 16.5537 188.031 17.8872L187.807 17.9733L187.73 17.741L188.04 17.8872C180.559 20.7695 173.095 23.712 165.579 26.534C158.072 29.3561 150.513 32.0835 142.851 34.5011C135.197 36.9188 127.44 39.0611 119.588 40.7819C111.736 42.4768 103.79 43.7674 95.7998 44.6278C87.81 45.4882 79.7771 45.9097 71.7442 45.97C63.7114 46.0302 55.6785 45.7205 47.6715 45.144L41.6727 44.6364C40.6729 44.5589 39.6731 44.4471 38.6733 44.3438L35.6825 44.0255C34.6827 43.9137 33.6829 43.819 32.6917 43.6986L29.7009 43.32L26.7188 42.9414L25.2277 42.7522L23.7366 42.5371L17.7809 41.6681L17.0397 41.5562L16.2985 41.4358L14.816 41.1949L11.8425 40.7045L8.86891 40.214C7.87773 40.042 6.89517 39.8527 5.90399 39.6806L0 38.5965Z" fill="url(#paint20_linear_18_3)"/>
<path d="M187.954 17.6635C186.101 18.3777 184.213 19.0143 182.326 19.6424C180.438 20.2619 178.533 20.8555 176.628 21.4234C174.724 21.9912 172.81 22.5333 170.888 23.0495C168.966 23.5743 167.044 24.0648 165.113 24.5466C157.391 26.4566 149.591 28.0569 141.747 29.3647C126.052 31.9802 110.159 33.4515 94.2483 33.7698C78.3377 34.0881 62.3927 33.2364 46.6027 31.1887L43.6464 30.7843L42.164 30.5778C41.6727 30.509 41.1814 30.4315 40.6901 30.3541L37.7424 29.8981C36.7599 29.7432 35.7773 29.5712 34.7947 29.4077C32.8296 29.0894 30.8731 28.7108 28.9166 28.358L28.184 28.2204L27.4514 28.0741L25.9862 27.7816L24.5209 27.4891C24.0297 27.3944 23.547 27.2998 23.0557 27.1879C15.2728 25.5446 7.64502 23.6432 0 21.4062V20.6663C7.61916 22.9204 15.4193 24.9251 23.1936 26.5943C23.6763 26.7061 24.1676 26.8008 24.6502 26.904L26.1068 27.2051L27.5634 27.5063L28.2961 27.6525L29.0287 27.7902C30.9852 28.1515 32.9331 28.5387 34.8896 28.8571C35.8721 29.0205 36.8461 29.2012 37.8286 29.3561L40.7763 29.8207C41.2676 29.8981 41.7589 29.9755 42.2501 30.0444L43.724 30.2509L46.6717 30.6638C62.4271 32.7632 78.3464 33.6752 94.2397 33.4171C110.142 33.1589 126.018 31.7479 141.722 29.1926C149.573 27.9106 157.374 26.3361 165.096 24.4605C167.027 23.9873 168.958 23.4969 170.871 22.9807C172.793 22.4644 174.706 21.931 176.611 21.3718C178.516 20.8125 180.421 20.2275 182.308 19.6166C184.196 18.9971 186.083 18.3691 187.945 17.6635H187.954Z" fill="url(#paint21_linear_18_3)"/>
<path d="M190.651 20.4512C204.666 14.1532 217.077 7.9843 232.557 0H255.949C234.47 2.7446 190.651 20.4512 190.651 20.4512Z" fill="url(#paint22_linear_18_3)"/>
<path d="M284.512 33.3482C352.343 15.8395 386.173 8.48332 430 9.09419V0H413.271C373.373 5.97102 329.882 17.6635 284.512 33.3482Z" fill="url(#paint23_linear_18_3)"/>
<path style="mix-blend-mode:color-dodge" d="M284.512 33.3482C352.343 15.8395 386.173 8.48332 430 9.09419V0H413.271C373.373 5.97102 329.882 17.6635 284.512 33.3482Z" fill="url(#paint24_linear_18_3)"/>
<path d="M415.718 0C415.632 0.00860377 413.159 0.369962 413.072 0.378566C402.187 1.99608 391.353 3.97494 380.579 6.24634C369.719 8.53494 358.928 11.1247 348.197 13.9467C326.736 19.5908 305.516 26.1641 284.512 33.3482C305.473 26.0522 326.659 19.3671 348.103 13.6112C358.825 10.7375 369.616 8.08755 380.467 5.73872C390.404 3.58777 400.954 1.6003 411.004 0H415.71H415.718Z" fill="url(#paint25_linear_18_3)"/>
<path style="mix-blend-mode:screen" d="M187.389 25.7338C207.911 19.0777 223.55 10.6192 222.32 6.84114C221.09 3.06311 203.457 5.39626 182.936 12.0524C162.414 18.7085 146.775 27.167 148.005 30.945C149.235 34.723 166.867 32.3899 187.389 25.7338Z" fill="url(#paint26_radial_18_3)"/>
<path style="mix-blend-mode:color-dodge" d="M186.515 23.0499C198.974 19.0089 208.468 13.8721 207.721 11.5763C206.974 9.28058 196.268 10.6953 183.809 14.7363C171.351 18.7772 161.857 23.9141 162.604 26.2099C163.351 28.5056 174.057 27.0908 186.515 23.0499Z" fill="url(#paint27_radial_18_3)"/>
<path style="mix-blend-mode:screen" d="M217.885 57.7312C257.63 40.4883 286.496 18.8086 282.36 9.30831C278.224 -0.192036 242.651 6.08452 202.907 23.3274C163.162 40.5703 134.295 62.2499 138.431 71.7503C142.568 81.2506 178.14 74.9741 217.885 57.7312Z" fill="url(#paint28_radial_18_3)"/>
<path style="mix-blend-mode:color-dodge" d="M214.944 50.9767C239.073 40.5086 256.597 27.3451 254.085 21.5751C251.573 15.8052 229.976 19.6138 205.847 30.0819C181.718 40.55 164.194 53.7135 166.706 59.4834C169.219 65.2533 190.815 61.4447 214.944 50.9767Z" fill="url(#paint29_radial_18_3)"/>
<path style="mix-blend-mode:screen" d="M88.3304 68.3413C116.584 66.9273 138.773 51.5349 137.891 33.9613C137.008 16.3877 113.388 3.2877 85.1344 4.70165C56.8804 6.1156 34.6916 21.5081 35.5742 39.0817C36.4567 56.6553 60.0765 69.7552 88.3304 68.3413Z" fill="url(#paint30_radial_18_3)"/>
<path style="mix-blend-mode:color-dodge" d="M87.7025 55.8385C104.851 54.9803 118.318 45.6361 117.782 34.9676C117.246 24.2991 102.91 16.3463 85.7623 17.2044C68.6141 18.0626 55.147 27.4068 55.6828 38.0753C56.2186 48.7438 70.5543 56.6967 87.7025 55.8385Z" fill="url(#paint31_radial_18_3)"/>
<path style="mix-blend-mode:screen" d="M145.881 79.6094C166.942 73.8935 181.551 60.2124 178.511 49.0518C175.471 37.8912 155.934 33.4774 134.874 39.1933C113.813 44.9093 99.2042 58.5903 102.244 69.7509C105.284 80.9115 124.821 85.3253 145.881 79.6094Z" fill="url(#paint32_radial_18_3)"/>
<path style="mix-blend-mode:color-dodge" d="M143.72 71.6723C156.503 68.2028 165.37 59.8964 163.524 53.1194C161.678 46.3423 149.819 43.661 137.035 47.1304C124.252 50.5999 115.385 58.9063 117.231 65.6833C119.077 72.4604 130.936 75.1417 143.72 71.6723Z" fill="url(#paint33_radial_18_3)"/>
<path style="mix-blend-mode:screen" d="M278.033 14.8101C290.863 9.36301 300.526 3.2139 299.615 1.07565C298.704 -1.06259 287.564 1.61973 274.734 7.0668C261.904 12.5139 252.241 18.663 253.152 20.8012C254.063 22.9395 265.203 20.2572 278.033 14.8101Z" fill="url(#paint34_radial_18_3)"/>
<path style="mix-blend-mode:color-dodge" d="M277.385 13.2899C285.174 9.98339 291.039 6.2501 290.486 4.95141C289.932 3.65272 283.17 5.28041 275.382 8.58696C267.593 11.8935 261.728 15.6268 262.281 16.9255C262.835 18.2242 269.597 16.5965 277.385 13.2899Z" fill="url(#paint35_radial_18_3)"/>
<defs>
<radialGradient id="paint0_radial_18_3" cx="0" cy="0" r="1" gradientUnits="userSpaceOnUse" gradientTransform="translate(247.312 85.2118) scale(399.903 399.198)">
<stop stop-color="#253C5C"/>
<stop offset="1" stop-color="#000002"/>
</radialGradient>
<radialGradient id="paint1_radial_18_3" cx="0" cy="0" r="1" gradientUnits="userSpaceOnUse" gradientTransform="translate(174.215 -101.972) scale(308.688 308.144)">
<stop stop-color="#3F5B87"/>
<stop offset="1" stop-color="#000002"/>
</radialGradient>
<radialGradient id="paint2_radial_18_3" cx="0" cy="0" r="1" gradientUnits="userSpaceOnUse" gradientTransform="translate(247.312 85.2118) scale(399.903 399.198)">
<stop stop-color="#253C5C"/>
<stop offset="1" stop-color="#000002"/>
</radialGradient>
<radialGradient id="paint3_radial_18_3" cx="0" cy="0" r="1" gradientUnits="userSpaceOnUse" gradientTransform="translate(134.12 -97.7905) scale(264.55 264.084)">
<stop stop-color="#3F5B87"/>
<stop offset="1" stop-color="#000002"/>
</radialGradient>
<linearGradient id="paint4_linear_18_3" x1="248.769" y1="-153.13" x2="198.691" y2="105.352" gradientUnits="userSpaceOnUse">
<stop stop-color="#C69D6E"/>
<stop offset="1" stop-color="#412314"/>
</linearGradient>
<linearGradient id="paint5_linear_18_3" x1="281.806" y1="-97.5926" x2="167.168" y2="115.33" gradientUnits="userSpaceOnUse">
<stop offset="0.18" stop-color="#000002"/>
<stop offset="0.38" stop-color="#868586"/>
<stop offset="0.95" stop-color="#000002"/>
</linearGradient>
<linearGradient id="paint6_linear_18_3" x1="154.659" y1="8.53495" x2="127.471" y2="123.589" gradientUnits="userSpaceOnUse">
<stop stop-color="#C69D6E"/>
<stop offset="1" stop-color="#412314"/>
</linearGradient>
<linearGradient id="paint7_linear_18_3" x1="101.704" y1="68.4086" x2="167.197" y2="8.17895" gradientUnits="userSpaceOnUse">
<stop offset="0.18" stop-color="#000002"/>
<stop offset="0.38" stop-color="#868586"/>
<stop offset="0.95" stop-color="#000002"/>
</linearGradient>
<linearGradient id="paint8_linear_18_3" x1="-5.2748" y1="-16.0719" x2="98.5505" y2="16.7103" gradientUnits="userSpaceOnUse">
<stop offset="0.18" stop-color="#000002"/>
<stop offset="0.38" stop-color="#868586"/>
<stop offset="0.95" stop-color="#000002"/>
</linearGradient>
<linearGradient id="paint9_linear_18_3" x1="223.033" y1="-13.7488" x2="174.834" y2="60.158" gradientUnits="userSpaceOnUse">
<stop stop-color="#FBD4A6"/>
<stop offset="0.18" stop-color="#F4CC9E"/>
<stop offset="0.45" stop-color="#E1B98A"/>
<stop offset="0.74" stop-color="#C69D6E"/>
<stop offset="1" stop-color="#412314"/>
</linearGradient>
<linearGradient id="paint10_linear_18_3" x1="124.285" y1="73.2439" x2="261.356" y2="-0.571599" gradientUnits="userSpaceOnUse">
<stop offset="0.18" stop-color="#000002"/>
<stop offset="0.46" stop-color="#656565"/>
<stop offset="0.95" stop-color="#000002"/>
</linearGradient>
<linearGradient id="paint11_linear_18_3" x1="102.066" y1="65.5693" x2="81.594" y2="-9.09544" gradientUnits="userSpaceOnUse">
<stop stop-color="#C69D6E"/>
<stop offset="1" stop-color="#412314"/>
</linearGradient>
<linearGradient id="paint12_linear_18_3" x1="186.066" y1="16.4074" x2="-42.6257" y2="101.754" gradientUnits="userSpaceOnUse">
<stop stop-color="#977050"/>
<stop offset="0.03" stop-color="#A27B5A"/>
<stop offset="0.14" stop-color="#D2AB83"/>
<stop offset="0.23" stop-color="#EFC89C"/>
<stop offset="0.28" stop-color="#FBD4A6"/>
<stop offset="0.37" stop-color="#F1CA9E"/>
<stop offset="0.52" stop-color="#D6B188"/>
<stop offset="0.72" stop-color="#AC8766"/>
<stop offset="0.96" stop-color="#714F36"/>
<stop offset="1" stop-color="#66442D"/>
</linearGradient>
<linearGradient id="paint13_linear_18_3" x1="114.813" y1="-8.08755" x2="125.472" y2="68.4396" gradientUnits="userSpaceOnUse">
<stop stop-color="#C69D6E"/>
<stop offset="0.8" stop-color="#412314"/>
</linearGradient>
<linearGradient id="paint14_linear_18_3" x1="112.193" y1="11.0042" x2="21.6167" y2="-87.2466" gradientUnits="userSpaceOnUse">
<stop offset="0.18" stop-color="#000002"/>
<stop offset="0.38" stop-color="#747474"/>
<stop offset="0.95" stop-color="#000002"/>
</linearGradient>
<linearGradient id="paint15_linear_18_3" x1="132.379" y1="33.4257" x2="150.4" y2="53.7621" gradientUnits="userSpaceOnUse">
<stop offset="0.18" stop-color="#000002"/>
<stop offset="0.38" stop-color="#868586"/>
<stop offset="0.95" stop-color="#000002"/>
</linearGradient>
<linearGradient id="paint16_linear_18_3" x1="122.812" y1="-28.2462" x2="114.136" y2="29.5499" gradientUnits="userSpaceOnUse">
<stop offset="0.18" stop-color="#000002"/>
<stop offset="0.38" stop-color="#868586"/>
<stop offset="0.95" stop-color="#000002"/>
</linearGradient>
<linearGradient id="paint17_linear_18_3" x1="97.8683" y1="10.5482" x2="66.3472" y2="82.1039" gradientUnits="userSpaceOnUse">
<stop stop-color="#C69D6E"/>
<stop offset="1" stop-color="#412314"/>
</linearGradient>
<linearGradient id="paint18_linear_18_3" x1="129.44" y1="11.7614" x2="9.01116" y2="45.1068" gradientUnits="userSpaceOnUse">
<stop offset="0.18" stop-color="#000002"/>
<stop offset="0.38" stop-color="#868586"/>
<stop offset="0.95" stop-color="#000002"/>
</linearGradient>
<linearGradient id="paint19_linear_18_3" x1="115.649" y1="20.5802" x2="111.269" y2="56.3652" gradientUnits="userSpaceOnUse">
<stop stop-color="#FBD4A6"/>
<stop offset="0.35" stop-color="#B5926F"/>
<stop offset="0.8" stop-color="#62422E"/>
<stop offset="1" stop-color="#412314"/>
</linearGradient>
<linearGradient id="paint20_linear_18_3" x1="61.5739" y1="42.8726" x2="296.697" y2="-59.3506" gradientUnits="userSpaceOnUse">
<stop offset="0.18" stop-color="#000002"/>
<stop offset="0.46" stop-color="#656565"/>
<stop offset="0.95" stop-color="#000002"/>
</linearGradient>
<linearGradient id="paint21_linear_18_3" x1="96.4634" y1="5.82475" x2="82.4366" y2="81.3404" gradientUnits="userSpaceOnUse">
<stop stop-color="#FBD4A6"/>
<stop offset="0.35" stop-color="#B5926F"/>
<stop offset="0.8" stop-color="#62422E"/>
<stop offset="1" stop-color="#412314"/>
</linearGradient>
<linearGradient id="paint22_linear_18_3" x1="194.564" y1="-36.2391" x2="225.032" y2="13.1946" gradientUnits="userSpaceOnUse">
<stop stop-color="#C69D6E"/>
<stop offset="1" stop-color="#412314"/>
</linearGradient>
<linearGradient id="paint23_linear_18_3" x1="345.646" y1="-84.4374" x2="364.13" y2="77.1144" gradientUnits="userSpaceOnUse">
<stop stop-color="#C69D6E"/>
<stop offset="0.71" stop-color="#412314"/>
</linearGradient>
<linearGradient id="paint24_linear_18_3" x1="367.9" y1="15.917" x2="442.376" y2="12.9296" gradientUnits="userSpaceOnUse">
<stop offset="0.18" stop-color="#000002"/>
<stop offset="0.38" stop-color="#868586"/>
<stop offset="0.95" stop-color="#000002"/>
</linearGradient>
<linearGradient id="paint25_linear_18_3" x1="359.092" y1="-26.4308" x2="335.736" y2="86.0628" gradientUnits="userSpaceOnUse">
<stop stop-color="#C69D6E"/>
<stop offset="1" stop-color="#412314"/>
</linearGradient>
<radialGradient id="paint26_radial_18_3" cx="0" cy="0" r="1" gradientUnits="userSpaceOnUse" gradientTransform="translate(183.587 14.3217) rotate(-17.9703) scale(39.0559 7.12177)">
<stop stop-color="#5E351D"/>
<stop offset="0.42" stop-color="#341A0E"/>
<stop offset="0.79" stop-color="#160703"/>
<stop offset="1" stop-color="#0B0000"/>
</radialGradient>
<radialGradient id="paint27_radial_18_3" cx="0" cy="0" r="1" gradientUnits="userSpaceOnUse" gradientTransform="translate(183.587 14.3217) rotate(-17.9703) scale(23.7051 4.32258)">
<stop stop-color="#626262"/>
<stop offset="0.16" stop-color="#4F4D4D"/>
<stop offset="0.53" stop-color="#2A2323"/>
<stop offset="0.83" stop-color="#130909"/>
<stop offset="1" stop-color="#0B0000"/>
</radialGradient>
<radialGradient id="paint28_radial_18_3" cx="0" cy="0" r="1" gradientUnits="userSpaceOnUse" gradientTransform="translate(209.522 38.5132) rotate(-23.4531) scale(78.4426 18.6543)">
<stop stop-color="#5E351D"/>
<stop offset="0.42" stop-color="#341A0E"/>
<stop offset="0.79" stop-color="#160703"/>
<stop offset="1" stop-color="#0B0000"/>
</radialGradient>
<radialGradient id="paint29_radial_18_3" cx="0" cy="0" r="1" gradientUnits="userSpaceOnUse" gradientTransform="translate(209.522 38.5131) rotate(-23.4531) scale(47.6109 11.3223)">
<stop stop-color="#626262"/>
<stop offset="0.16" stop-color="#4F4D4D"/>
<stop offset="0.53" stop-color="#2A2323"/>
<stop offset="0.83" stop-color="#130909"/>
<stop offset="1" stop-color="#0B0000"/>
</radialGradient>
<radialGradient id="paint30_radial_18_3" cx="0" cy="0" r="1" gradientUnits="userSpaceOnUse" gradientTransform="translate(86.9627 36.3592) rotate(-2.86495) scale(51.2904 31.8732)">
<stop stop-color="#5E351D"/>
<stop offset="0.42" stop-color="#341A0E"/>
<stop offset="0.79" stop-color="#160703"/>
<stop offset="1" stop-color="#0B0000"/>
</radialGradient>
<radialGradient id="paint31_radial_18_3" cx="0" cy="0" r="1" gradientUnits="userSpaceOnUse" gradientTransform="translate(86.9627 36.3592) rotate(-2.86495) scale(31.1439 19.3536)">
<stop stop-color="#3D3D3C"/>
<stop offset="0.34" stop-color="#272322"/>
<stop offset="0.75" stop-color="#120909"/>
<stop offset="1" stop-color="#0B0000"/>
</radialGradient>
<radialGradient id="paint32_radial_18_3" cx="0" cy="0" r="1" gradientUnits="userSpaceOnUse" gradientTransform="translate(140.063 59.5252) rotate(-15.1844) scale(39.3973 21.0252)">
<stop stop-color="#5E351D"/>
<stop offset="0.42" stop-color="#341A0E"/>
<stop offset="0.79" stop-color="#160703"/>
<stop offset="1" stop-color="#0B0000"/>
</radialGradient>
<radialGradient id="paint33_radial_18_3" cx="0" cy="0" r="1" gradientUnits="userSpaceOnUse" gradientTransform="translate(140.063 59.5252) rotate(-15.1844) scale(23.9123 12.7613)">
<stop stop-color="#3D3D3C"/>
<stop offset="0.34" stop-color="#272322"/>
<stop offset="0.75" stop-color="#120909"/>
<stop offset="1" stop-color="#0B0000"/>
</radialGradient>
<radialGradient id="paint34_radial_18_3" cx="0" cy="0" r="1" gradientUnits="userSpaceOnUse" gradientTransform="translate(273.565 2.26559) rotate(-23.0036) scale(25.1354 4.07103)">
<stop stop-color="#5E351D"/>
<stop offset="0.42" stop-color="#341A0E"/>
<stop offset="0.79" stop-color="#160703"/>
<stop offset="1" stop-color="#0B0000"/>
</radialGradient>
<radialGradient id="paint35_radial_18_3" cx="0" cy="0" r="1" gradientUnits="userSpaceOnUse" gradientTransform="translate(273.565 2.2656) rotate(-23.0036) scale(15.2585 2.47133)">
<stop stop-color="#3D3D3C"/>
<stop offset="0.34" stop-color="#272322"/>
<stop offset="0.75" stop-color="#120909"/>
<stop offset="1" stop-color="#0B0000"/>
</radialGradient>
</defs>
</svg>
