<svg width="282" height="381" viewBox="0 0 282 381" fill="none" xmlns="http://www.w3.org/2000/svg">
<path fill-rule="evenodd" clip-rule="evenodd" d="M35.17 125.01H246.67C266.01 125.01 281.84 140.84 281.84 160.18V345.6C281.84 364.95 266.01 380.77 246.67 380.77H35.17C15.82 380.77 0 364.94 0 345.6V160.18C0 140.83 15.83 125.01 35.17 125.01Z" fill="#FFF899"/>
<path fill-rule="evenodd" clip-rule="evenodd" d="M45.94 320.67C46.38 314.96 47.13 306.97 48.49 296.7C49.85 286.44 51.82 273.89 55.46 262.88C59.09 251.87 64.39 242.39 72.2 234.4C80.01 226.41 90.32 219.91 96.83 216.19C103.34 212.47 106.03 211.54 108.56 210.76C111.09 209.98 113.45 209.35 114.88 208.44C116.31 207.54 116.8 206.36 117.83 204.88C118.86 203.4 120.43 201.61 121.72 200.13C123.01 198.65 124.02 197.47 124.44 196.24C124.86 195.01 124.68 193.73 124.77 192.41C124.86 191.1 125.21 189.76 124.22 188.78C123.22 187.81 120.88 187.2 117.72 186C114.57 184.8 110.61 183 107.11 180.7C103.61 178.4 100.57 175.59 97.85 172C95.13 168.41 92.73 164.03 90.47 158.62C88.21 153.22 86.09 146.79 85.01 143.51C83.93 140.23 83.89 140.1 82.47 140.52C81.05 140.94 78.26 141.92 76 142.5C73.74 143.08 72.02 143.26 69.17 142.29C66.32 141.33 62.36 139.22 59.19 136.85C56.02 134.48 53.66 131.84 53.48 128.51C53.3 125.18 55.3 121.17 57 118.71C58.69 116.25 60.07 115.35 61.3 114.43C62.53 113.51 63.6 112.57 63.91 110.8C64.21 109.03 63.75 106.43 62.58 103.13C61.41 99.83 59.54 95.84 57.89 91.04C56.24 86.24 54.81 80.63 54.37 74.92C53.93 69.21 54.48 63.39 55.98 57.94C57.48 52.48 59.92 47.39 62.65 43.43C65.37 39.47 68.37 36.66 70.85 34.47C73.33 32.28 75.28 30.69 77 29.33C78.72 27.96 80.23 26.81 82.21 24.24C84.19 21.67 86.66 17.69 90.43 14.2C94.2 10.72 99.26 7.73 105.27 5.56C111.28 3.39 118.23 2.04 125.52 3.16C132.82 4.28 140.45 7.87 147.59 11.64C154.73 15.41 161.36 19.36 168.73 22.27C176.1 25.19 184.22 27.08 188.79 28.56C193.36 30.04 194.4 31.11 194.49 33.41C194.59 35.71 193.75 39.24 192.13 44.63C190.51 50.03 188.09 57.28 187.3 62.07C186.51 66.85 187.35 69.17 187.51 75.09C187.68 81.01 187.18 90.54 188.36 94.52C189.54 98.5 192.4 96.93 195.53 96.61C198.66 96.29 202.07 97.22 204.74 98.82C207.42 100.42 209.36 102.68 209.5 106.17C209.64 109.66 207.97 114.38 206.05 117.64C204.14 120.9 201.97 122.69 199.78 123.93C197.58 125.17 195.36 125.85 193.43 126.92C191.5 127.99 189.88 129.43 188.5 134.15C187.12 138.87 185.99 146.86 184.61 152.9C183.23 158.94 181.6 163.02 178.56 167.27C175.52 171.51 171.06 175.91 167.23 178.94C163.4 181.97 160.21 183.63 158.54 184.91C156.87 186.2 156.73 187.12 156.87 188.75C157.01 190.37 157.45 192.69 157.6 195.6C157.75 198.51 157.62 202.01 158.29 204.05C158.97 206.09 160.45 206.68 162.82 206.92C165.19 207.16 168.44 207.07 172.07 207.89C175.7 208.71 179.7 210.45 183.49 212.07C187.28 213.69 190.87 215.18 195.88 217.6C200.9 220.03 207.34 223.39 213.03 228.23C218.72 233.07 223.64 239.39 226.42 246.68C229.19 253.97 229.82 262.23 230.1 269.9C230.38 277.57 230.31 284.64 228.98 294.07C227.65 303.51 225.04 315.31 221.79 325.38C218.54 335.45 214.64 343.79 212.72 348.51C210.8 353.23 210.87 354.32 211.72 355.79C212.57 357.26 214.19 359.12 215.48 361.29C216.78 363.47 217.74 365.97 218.65 370.01C219.35 373.11 220.02 377.12 220.56 380.74H52.94C49.98 377.34 47.68 372.24 46.46 365.11C44.99 356.46 45.11 344.84 45.23 337.31C45.36 329.78 45.49 326.34 45.93 320.63L45.94 320.67Z" fill="white"/>
<path fill-rule="evenodd" clip-rule="evenodd" d="M100.85 215.18C106.25 211.79 109.96 210.43 113.19 211.13C116.42 211.84 119.17 214.61 121.14 216.52C123.11 218.43 124.29 219.49 124.88 220.02C125.273 220.373 125.6 222.123 125.86 225.27C126.24 229.99 127.02 239.43 127.96 245.46C128.9 251.48 130.02 254.08 130.26 255.98C130.5 257.88 129.86 259.08 131.96 258.48C134.06 257.88 138.88 255.49 142.5 253.92C146.12 252.35 148.53 251.59 150.57 249.16C152.61 246.73 154.28 242.65 155.61 236.62C156.94 230.59 157.93 222.63 159.55 218.54C161.18 214.45 163.44 214.24 167.78 214.97C172.12 215.7 178.53 217.37 187.87 222.39C197.21 227.41 209.47 235.77 215.56 244.27C221.65 252.77 221.55 261.41 221.6 270.75C221.65 280.09 221.83 290.13 220.95 298.86C220.07 307.59 218.12 315.03 216.4 322.09C214.68 329.15 213.19 335.84 210.73 340.86C208.27 345.88 204.83 349.22 201.11 353.87C197.39 358.52 193.4 364.46 193.63 370.5C193.76 373.9 195.23 377.33 196.89 380.76H67.27C65.95 379.6 64.54 378.26 63.06 376.63C57.71 370.72 51.48 360.99 50.83 343.43C50.18 325.87 55.1 300.47 61.11 280.16C67.11 259.85 74.2 244.63 81.28 234.3C88.36 223.98 95.44 218.55 100.84 215.16L100.85 215.18Z" fill="#DFE868"/>
<path fill-rule="evenodd" clip-rule="evenodd" d="M124.86 370.54C124.49 369.32 124.54 369.99 124.65 368.3C125.94 368.2 126.68 368.06 128.32 368.03C130.24 368 129.17 368.25 131.3 368.14L132.53 367.29C133.03 365.92 132.51 366.66 133.36 365.49L132.32 365.06C132.8 363.85 132.92 363.93 133.19 362.5C131.91 361.89 132.46 362.61 132.29 361.19C131.92 360.7 132.33 360.89 131.52 360.37C130.97 360.02 131.85 360.31 130.34 359.82C130.26 359.8 130.17 359.78 130.07 359.74L125.86 359.1C122.75 358.64 110.88 358.2 104.96 356.03C101.25 354.66 103.08 351.1 100.88 351.16C93.6701 351.27 86.0601 358.03 80.4201 360.32C82.4401 361.11 81.2601 360.92 83.2601 360.87C86.6801 360.82 83.5201 360.94 85.5001 361.38C86.0901 361.51 85.7101 361.38 86.8401 361.25C87.4601 361.19 88.4001 360.92 89.5401 361.81C92.5801 362.92 92.7601 361.44 95.1401 362.41C96.1201 362.8 95.1601 362.26 95.8901 362.84C96.6401 363.43 96.2901 362.39 96.5701 364.01C101.89 364.82 105.04 364.76 106.91 365.04C106.79 365.1 106.62 365.04 106.54 365.19C106.37 365.52 103.56 365.77 103.16 365.81L90.3601 367.97C86.4101 368.74 76.1501 370.68 79.6001 376.9L80.8901 376.94C81.1901 376.99 81.8701 377.22 82.3801 377.32C83.4501 377.29 83.3001 377.32 84.0801 377.03C87.1201 378.86 83.0101 375.09 87.0701 379.14C87.6201 378.78 87.2001 378.28 89.9401 378.47C90.7101 378.59 90.6901 378.58 91.3901 378.84C91.4801 378.87 91.6401 379.19 91.7301 379.08C91.8101 378.97 91.9201 379.25 92.0201 379.34C94.7801 379.13 93.4801 378.98 95.9501 379.79C96.8801 380.09 97.4601 380.11 98.2701 380.51C98.5001 380.62 98.6701 380.72 98.8101 380.8H100.09L100.2 380.06C102.6 379.87 101.91 380.22 104.06 380.09L103.95 380.8H105.66L106.26 380.34L106.82 380.8H109.48L109.79 378.75L117.66 378.92C118.25 378.94 118.45 378.93 119.05 379.11C120.2 379.43 119.59 379.32 120.13 379.78C122.22 379.62 122.22 380.04 123.45 379.74L123.29 380.8H144.47C144.44 380.63 144.42 380.42 144.39 380.18L147.09 380.59C147.99 374.67 144.22 373.52 138.36 372.63L138.2 373.7C135.76 372.03 136.26 373.65 134.5 372.58C127.8 371.56 123.15 372.58 117.43 372.19C117.55 372.13 117.76 371.93 117.8 372.04C117.84 372.16 118.09 371.92 118.18 371.9C118.29 371.87 118.81 371.7 118.97 371.67L124.87 370.56L124.86 370.54Z" fill="#D7DD5E"/>
<path fill-rule="evenodd" clip-rule="evenodd" d="M160.05 133.49C159.08 130.99 159.24 127.32 160.67 125.07C162.1 122.82 164.8 122.01 167.34 122.37C169.88 122.73 172.26 124.27 173.91 125.83C175.56 127.4 176.49 128.99 176.5 130.63C176.51 132.27 175.63 133.96 174.49 135.14C173.35 136.31 171.97 136.97 170.39 137.46C168.81 137.96 167.02 138.3 165.07 137.8C163.12 137.31 161.01 135.98 160.04 133.48L160.05 133.49Z" fill="#FFE8B2"/>
<path fill-rule="evenodd" clip-rule="evenodd" d="M96.7799 141.13C95.8099 138.63 95.9699 134.96 97.3999 132.71C98.8299 130.47 101.53 129.65 104.07 130.01C106.61 130.37 108.99 131.91 110.64 133.47C112.29 135.04 113.22 136.63 113.23 138.27C113.25 139.91 112.36 141.6 111.22 142.78C110.08 143.95 108.7 144.61 107.12 145.1C105.54 145.6 103.75 145.93 101.8 145.44C99.8499 144.95 97.7399 143.62 96.7699 141.12L96.7799 141.13Z" fill="#FFE8B2"/>
<path fill-rule="evenodd" clip-rule="evenodd" d="M84.09 65.59C82.31 67.47 79.58 71.2 77.76 75.85C75.95 80.5 75.05 86.05 72.95 88.38C70.85 90.7 67.53 89.79 65.29 86.37C63.05 82.95 61.88 77.02 63.11 69.07C64.34 61.12 67.97 51.16 73.87 42.48C79.77 33.8 87.94 26.41 95.03 20.82C102.12 15.23 108.14 11.43 117.22 11.31C126.29 11.19 138.42 14.73 150.1 20.04C161.78 25.35 173.02 32.43 179.2 37.67C185.38 42.91 186.49 46.3 185.88 49.04C185.26 51.78 182.91 53.85 182.58 57.07C182.25 60.29 183.93 64.65 185.01 68.93C186.09 73.21 186.57 77.41 185.93 80.8C185.3 84.19 183.56 86.77 181.49 86.96C179.42 87.15 177.01 84.94 174.66 81.23C172.31 77.52 170.03 72.31 166.61 70.78C163.19 69.24 158.64 71.38 151.27 73.38C143.9 75.38 133.7 77.23 124.9 77.03C116.09 76.83 108.67 74.57 103.55 72.17C98.43 69.77 95.61 67.24 93.32 65.8C91.03 64.37 89.28 64.03 87.99 63.87C86.7 63.71 85.88 63.72 84.1 65.6L84.09 65.59Z" fill="#DCB874"/>
<path fill-rule="evenodd" clip-rule="evenodd" d="M43.05 354.58V335.67C43.24 318.61 44.02 303.66 47.28 285.99C54.25 248.24 65.38 232 96.19 212.96C107.9 205.72 107.05 210.84 107.41 211.08C102.32 217.1 88.53 222.62 81.28 229.41C55.81 253.28 47.8 292.14 47.94 327.85C48.06 358.23 49.35 373.47 57.62 380.78H50.35C46.41 375.92 43.48 368.07 43.04 354.59L43.05 354.58ZM158.24 380.77C158.04 372.05 156.29 360.29 159.76 353.02L79.26 349.3C76.63 343.58 80.91 302.55 80.91 291.63H85.85C85.85 299.38 84.7 339.73 82.7 343.93L141.81 346C141.81 333.21 140.68 304.76 136.66 295.14C121.25 258.3 123.59 266.02 131.72 258.11C129.93 255.68 125.68 247.8 124.58 247.17C114.91 241.61 122.81 254.59 108.86 229C105.35 222.56 102.72 222.58 105.95 217.92C113.1 219.8 114.68 232.37 121.52 241.96C128.79 234.49 122.69 237.15 127.31 229.06C99.97 207.5 121.44 205.31 122.19 190.98C114.85 186.57 86.99 182.14 82.16 141.73C63.17 156.27 42.53 129.28 54.94 115.7C59.71 110.49 67.61 112.03 74.32 112.03C73.21 121.43 70.77 114.82 60.57 118.03C55.02 125.41 54.03 130.92 62.44 137.16C71.31 143.73 72.34 139.36 80.56 139.24C79.47 133.31 74.72 123.91 77.98 118.99C84.85 122.85 89.12 151.24 93.49 160.4C102.95 180.23 107.23 178.06 124.68 185.72C120.33 168.04 148.51 177.59 156.44 182.83C196.98 165.23 179.86 122.2 188.23 108.95C195.29 110.56 190.22 113.06 191.61 123.08C206.76 124.98 210.82 106.85 200.41 97.6C191.17 97.5 192.03 102.16 184.95 101.59C185.03 91.3 206.17 87.01 210.3 102.82C214.34 118.31 206.26 127.13 191.6 128.94C185.49 178.79 179.19 171.35 159.85 187.73L159.8 202.75C165.9 206.27 164.34 201.68 167.72 207.25C159.62 212.78 160.1 204.36 158.07 220.6C157.29 226.8 154.86 233.11 158.72 238.61C168.56 236.55 166.99 214.44 177.11 216.96C177.17 221.93 166.72 241.17 162.49 245.54L154.99 243.54C151.67 251.47 167.32 269.8 175.7 282.39C181.05 290.43 198.69 313.46 199.4 321.28C188.12 318.22 175.41 285.17 164.98 276.65C158.61 277.41 143.51 285.29 138.79 287.76C143.14 295.06 148.97 312.69 152.84 321.76C157.11 331.74 163.85 344.01 170.97 351.39C198.39 379.84 208.9 354.46 217.3 329.32C233.31 281.41 238.02 236.98 186.03 216.03C180.47 213.79 173.07 213.69 171.42 207.59C180.31 204.18 228.13 225.01 232.15 258.83C235.5 286.95 225.53 329.16 213.08 353.12C220.27 365.75 223.49 374.41 224.43 380.76H218.29C217.12 372.45 215.88 364.72 210.35 357.81C205.72 364.17 202.87 366.24 194.6 369.48C197.86 375.6 199.68 378.34 201.91 380.75H195.52C192.81 377.43 190.15 374.6 187.7 373.89C185.99 377 185.3 379.19 184.95 380.75H174.32C176.34 380.63 178.56 380.51 181.23 380.31L181.29 369.06L163.23 352.72L163.46 380.75H158.23L158.24 380.77ZM146.78 323.08L160.24 347.04L147.05 345.56L146.78 323.08ZM130.5 265.18L150.89 255.08C155.18 259.74 160.35 266.66 161.12 271.44L137.78 282.79L130.49 265.19L130.5 265.18ZM141.8 194.42C141.96 194.26 142.27 194.67 142.27 194.9C142.27 194.99 142.47 195.1 142.47 195.1C142.43 195.06 139.59 196.64 141.8 194.42ZM138.51 192.77C138.67 192.61 138.99 193.02 138.99 193.25C138.99 193.34 139.19 193.45 139.19 193.45C139.15 193.41 136.31 194.99 138.52 192.78L138.51 192.77ZM127.27 194.14C128.27 189.15 126.66 190.76 131.64 189.76C130.62 194.96 131.83 192.99 127.27 194.14ZM128.63 181.24C164.02 181.24 157.17 192.52 150.07 238.95C148.35 250.18 148.1 252.64 136.67 255.45C131.7 249 129.39 247.58 130.41 237.59C130.87 233.1 134.33 218.97 133.94 216.97C129.39 215.61 130.66 218.97 125.45 220.54C125.91 212.15 129.74 213.29 129 208.73C123.62 207.14 123.69 210.16 120.89 213.95C115.45 206.26 123.2 199.93 130.31 199.22C143.65 197.88 141.84 204.05 151.56 205.71C150.55 188.14 138.01 189.45 128.63 181.25V181.24Z" fill="#323234"/>
<path fill-rule="evenodd" clip-rule="evenodd" d="M88.71 60.54C87.11 69.84 111.38 80 120.45 80.7C144.32 82.54 160.21 73.89 167.71 72.92C172.49 79.48 172.19 89.02 176.22 95.71C184.29 89.91 172.69 71.37 171.7 70.29C179.2 64.81 194.47 51.17 193.38 40.63C182.58 38.56 189.99 65.16 148.84 72.97C137.08 75.2 126.01 77.09 113.87 74.1C94.39 69.31 96.79 57.99 88.7 60.55L88.71 60.54Z" fill="#323234"/>
<path fill-rule="evenodd" clip-rule="evenodd" d="M80.9102 28.01C86.9202 25.73 84.9502 22.66 89.5402 16.88C99.0202 4.94 119.54 2.61 135.47 7.99C158.77 15.86 162.85 31.37 194.47 31.31V26.37C167.67 26.35 156.2 9.18 133.27 1.96C129.88 0.89 126.34 0.25 122.78 0H115.85C100.9 1.03 86.6602 8.62 81.1902 20.3L80.9102 28.01Z" fill="#323234"/>
<path fill-rule="evenodd" clip-rule="evenodd" d="M62.3799 103.38C66.7899 96.9 54.3599 90.07 56.2299 65.95C57.7099 46.8 68.2499 44.45 71.0299 32.96C59.0599 34.25 52.0899 53.72 51.2999 64.29C50.7199 72.08 51.0299 80.05 53.2299 87.02C54.0299 89.55 55.8999 94.35 56.8299 96.63C59.7399 103.79 60.0299 102.78 62.3699 103.38H62.3799Z" fill="#323234"/>
<path fill-rule="evenodd" clip-rule="evenodd" d="M108.32 38.98C107.27 52.2 163.67 57.26 176.36 37.9C170.55 35.39 168.76 38.8 162.07 41.71C135 53.49 116.91 38.08 108.31 38.98H108.32Z" fill="#323234"/>
<path fill-rule="evenodd" clip-rule="evenodd" d="M71.6001 101.88C79.1901 96.58 83.2501 74.23 79.2601 67.28C73.2301 72.91 77.0601 80.18 71.3801 94.48C68.8001 100.98 67.9401 96.89 71.5901 101.88H71.6001Z" fill="#323234"/>
<path fill-rule="evenodd" clip-rule="evenodd" d="M130.56 139.77L137.47 139.47C137.73 138.29 135.34 115.5 133.14 112.47C125.82 113.94 130 114.71 131.07 132.36C131.3 136.24 130.63 134.57 130.56 139.78V139.77Z" fill="#323234"/>
<path fill-rule="evenodd" clip-rule="evenodd" d="M187.88 92.55C190.35 88.24 189.8 81.69 189.59 75.73C189.04 60.01 186.61 63.45 184.45 62.47C180.82 69.4 183.76 71.25 184.45 77.57C185.31 85.41 181.96 87.64 187.87 92.55H187.88Z" fill="#323234"/>
<path fill-rule="evenodd" clip-rule="evenodd" d="M101.08 118.21C105.66 122.84 103.42 122.17 110.11 121.5L113.5 116.39L109.51 109.93C102.55 111.09 101.87 111.88 101.08 118.21Z" fill="#323234"/>
<path fill-rule="evenodd" clip-rule="evenodd" d="M129.72 165.33C135.39 166.77 132.91 166.26 136.72 161.33C144.07 163.56 138.73 164.39 146.45 164.48L143.46 156.73L133.85 156.54C130.95 160.25 129.24 160.57 129.71 165.32L129.72 165.33Z" fill="#323234"/>
<path fill-rule="evenodd" clip-rule="evenodd" d="M149.89 110.25C151.39 115.26 150.18 113.62 154.83 117.12C159.84 115.62 158.2 116.82 161.69 112.18C160.19 107.17 161.4 108.81 156.75 105.31C152.83 106.63 152.75 106.15 149.89 110.25Z" fill="#323234"/>
<path fill-rule="evenodd" clip-rule="evenodd" d="M96 96.65C100.8 100.18 98.03 99.68 103.95 95.67C107.41 93.32 109.82 92.18 112.46 88.97C106.42 85.5 99.89 91.12 96 96.64V96.65Z" fill="#323234"/>
<path fill-rule="evenodd" clip-rule="evenodd" d="M241.79 89.8L242.56 79.46C248.63 76.53 258.22 73.34 260.31 66.37C262.75 58.22 258.99 49.5 251.36 45.76C238.35 39.39 208.34 46.65 213.91 65.73C215.27 70.4 220.96 70.24 223.04 66.01C225.43 61.13 221.78 58.85 227.27 54.89C232.73 50.95 246.64 49.42 250.43 56.96C255.88 67.81 243.5 68.92 237.69 72.44C230.43 76.83 231.43 92.9 241.79 89.81V89.8Z" fill="#323234"/>
<path fill-rule="evenodd" clip-rule="evenodd" d="M237.3 95.54C235.64 96.36 236 94.45 234.04 98.55C231.31 104.26 237.93 109.17 242.76 107.25C249.9 104.41 246.35 91.05 237.3 95.54Z" fill="#323234"/>
</svg>
